<?xml version="1.0" encoding="UTF-8" standalone="no"?>
<!DOCTYPE svg PUBLIC "-//W3C//DTD SVG 1.1//EN"
 "http://www.w3.org/Graphics/SVG/1.1/DTD/svg11.dtd">
<!-- Generated by graphviz version 2.36.0 (20140111.2315)
 -->
<!-- Title: controllers_diagram Pages: 1 -->
<svg width="1126pt" height="1242pt"
 viewBox="0.00 0.00 1126.00 1242.00" xmlns="http://www.w3.org/2000/svg" xmlns:xlink="http://www.w3.org/1999/xlink">
<g id="graph0" class="graph" transform="scale(1 1) rotate(0) translate(4 1238)">
<title>controllers_diagram</title>
<polygon fill="none" stroke="none" points="-4,4 -4,-1238 1122,-1238 1122,4 -4,4"/>
<!-- _diagram_info -->
<g id="node1" class="node"><title>_diagram_info</title>
<text text-anchor="start" x="748" y="-103.6" font-family="Times,serif" font-size="13.00">Controllers diagram</text>
<text text-anchor="start" x="748" y="-89.6" font-family="Times,serif" font-size="13.00">Date: Jan 10 2017 &#45; 15:39</text>
<text text-anchor="start" x="748" y="-75.6" font-family="Times,serif" font-size="13.00">Migration version: 20161223162935</text>
<text text-anchor="start" x="748" y="-61.6" font-family="Times,serif" font-size="13.00">Generated by RailRoady 1.5.2</text>
<text text-anchor="start" x="748" y="-47.6" font-family="Times,serif" font-size="13.00">http://railroady.prestonlee.com</text>
</g>
<!-- AsignacionFamiliarsController -->
<g id="node2" class="node"><title>AsignacionFamiliarsController</title>
<path fill="none" stroke="black" d="M432,-380.5C432,-380.5 593,-380.5 593,-380.5 599,-380.5 605,-386.5 605,-392.5 605,-392.5 605,-581.5 605,-581.5 605,-587.5 599,-593.5 593,-593.5 593,-593.5 432,-593.5 432,-593.5 426,-593.5 420,-587.5 420,-581.5 420,-581.5 420,-392.5 420,-392.5 420,-386.5 426,-380.5 432,-380.5"/>
<text text-anchor="middle" x="512.5" y="-578.3" font-family="Times,serif" font-size="14.00">AsignacionFamiliarsController</text>
<polyline fill="none" stroke="black" points="420,-570.5 605,-570.5 "/>
<text text-anchor="start" x="428" y="-555.3" font-family="Times,serif" font-size="14.00">create</text>
<text text-anchor="start" x="428" y="-540.3" font-family="Times,serif" font-size="14.00">destroy</text>
<text text-anchor="start" x="428" y="-525.3" font-family="Times,serif" font-size="14.00">edit</text>
<text text-anchor="start" x="428" y="-510.3" font-family="Times,serif" font-size="14.00">index</text>
<text text-anchor="start" x="428" y="-495.3" font-family="Times,serif" font-size="14.00">new</text>
<text text-anchor="start" x="428" y="-480.3" font-family="Times,serif" font-size="14.00">show</text>
<text text-anchor="start" x="428" y="-465.3" font-family="Times,serif" font-size="14.00">update</text>
<polyline fill="none" stroke="black" points="420,-457.5 605,-457.5 "/>
<polyline fill="none" stroke="black" points="420,-433.5 605,-433.5 "/>
<text text-anchor="start" x="428" y="-418.3" font-family="Times,serif" font-size="14.00">_layout</text>
<text text-anchor="start" x="428" y="-403.3" font-family="Times,serif" font-size="14.00">asignacion_familiar_params</text>
<text text-anchor="start" x="428" y="-388.3" font-family="Times,serif" font-size="14.00">set_asignacion_familiar</text>
</g>
<!-- PersonalsController -->
<g id="node3" class="node"><title>PersonalsController</title>
<path fill="none" stroke="black" d="M872,-160.5C872,-160.5 972,-160.5 972,-160.5 978,-160.5 984,-166.5 984,-172.5 984,-172.5 984,-376.5 984,-376.5 984,-382.5 978,-388.5 972,-388.5 972,-388.5 872,-388.5 872,-388.5 866,-388.5 860,-382.5 860,-376.5 860,-376.5 860,-172.5 860,-172.5 860,-166.5 866,-160.5 872,-160.5"/>
<text text-anchor="middle" x="922" y="-373.3" font-family="Times,serif" font-size="14.00">PersonalsController</text>
<polyline fill="none" stroke="black" points="860,-365.5 984,-365.5 "/>
<text text-anchor="start" x="868" y="-350.3" font-family="Times,serif" font-size="14.00">create</text>
<text text-anchor="start" x="868" y="-335.3" font-family="Times,serif" font-size="14.00">destroy</text>
<text text-anchor="start" x="868" y="-320.3" font-family="Times,serif" font-size="14.00">edit</text>
<text text-anchor="start" x="868" y="-305.3" font-family="Times,serif" font-size="14.00">index</text>
<text text-anchor="start" x="868" y="-290.3" font-family="Times,serif" font-size="14.00">new</text>
<text text-anchor="start" x="868" y="-275.3" font-family="Times,serif" font-size="14.00">search</text>
<text text-anchor="start" x="868" y="-260.3" font-family="Times,serif" font-size="14.00">trueToAct</text>
<text text-anchor="start" x="868" y="-245.3" font-family="Times,serif" font-size="14.00">update</text>
<polyline fill="none" stroke="black" points="860,-237.5 984,-237.5 "/>
<polyline fill="none" stroke="black" points="860,-213.5 984,-213.5 "/>
<text text-anchor="start" x="868" y="-198.3" font-family="Times,serif" font-size="14.00">_layout</text>
<text text-anchor="start" x="868" y="-183.3" font-family="Times,serif" font-size="14.00">personal_params</text>
<text text-anchor="start" x="868" y="-168.3" font-family="Times,serif" font-size="14.00">set_personal</text>
</g>
<!-- CentrocostosController -->
<g id="node4" class="node"><title>CentrocostosController</title>
<path fill="none" stroke="black" d="M892,-420.5C892,-420.5 1011,-420.5 1011,-420.5 1017,-420.5 1023,-426.5 1023,-432.5 1023,-432.5 1023,-621.5 1023,-621.5 1023,-627.5 1017,-633.5 1011,-633.5 1011,-633.5 892,-633.5 892,-633.5 886,-633.5 880,-627.5 880,-621.5 880,-621.5 880,-432.5 880,-432.5 880,-426.5 886,-420.5 892,-420.5"/>
<text text-anchor="middle" x="951.5" y="-618.3" font-family="Times,serif" font-size="14.00">CentrocostosController</text>
<polyline fill="none" stroke="black" points="880,-610.5 1023,-610.5 "/>
<text text-anchor="start" x="888" y="-595.3" font-family="Times,serif" font-size="14.00">create</text>
<text text-anchor="start" x="888" y="-580.3" font-family="Times,serif" font-size="14.00">destroy</text>
<text text-anchor="start" x="888" y="-565.3" font-family="Times,serif" font-size="14.00">edit</text>
<text text-anchor="start" x="888" y="-550.3" font-family="Times,serif" font-size="14.00">index</text>
<text text-anchor="start" x="888" y="-535.3" font-family="Times,serif" font-size="14.00">new</text>
<text text-anchor="start" x="888" y="-520.3" font-family="Times,serif" font-size="14.00">show</text>
<text text-anchor="start" x="888" y="-505.3" font-family="Times,serif" font-size="14.00">update</text>
<polyline fill="none" stroke="black" points="880,-497.5 1023,-497.5 "/>
<polyline fill="none" stroke="black" points="880,-473.5 1023,-473.5 "/>
<text text-anchor="start" x="888" y="-458.3" font-family="Times,serif" font-size="14.00">_layout</text>
<text text-anchor="start" x="888" y="-443.3" font-family="Times,serif" font-size="14.00">centrocosto_params</text>
<text text-anchor="start" x="888" y="-428.3" font-family="Times,serif" font-size="14.00">set_centrocosto</text>
</g>
<!-- HaberesController -->
<g id="node5" class="node"><title>HaberesController</title>
<path fill="none" stroke="black" d="M72,-500.5C72,-500.5 164,-500.5 164,-500.5 170,-500.5 176,-506.5 176,-512.5 176,-512.5 176,-701.5 176,-701.5 176,-707.5 170,-713.5 164,-713.5 164,-713.5 72,-713.5 72,-713.5 66,-713.5 60,-707.5 60,-701.5 60,-701.5 60,-512.5 60,-512.5 60,-506.5 66,-500.5 72,-500.5"/>
<text text-anchor="middle" x="118" y="-698.3" font-family="Times,serif" font-size="14.00">HaberesController</text>
<polyline fill="none" stroke="black" points="60,-690.5 176,-690.5 "/>
<text text-anchor="start" x="68" y="-675.3" font-family="Times,serif" font-size="14.00">create</text>
<text text-anchor="start" x="68" y="-660.3" font-family="Times,serif" font-size="14.00">destroy</text>
<text text-anchor="start" x="68" y="-645.3" font-family="Times,serif" font-size="14.00">edit</text>
<text text-anchor="start" x="68" y="-630.3" font-family="Times,serif" font-size="14.00">index</text>
<text text-anchor="start" x="68" y="-615.3" font-family="Times,serif" font-size="14.00">new</text>
<text text-anchor="start" x="68" y="-600.3" font-family="Times,serif" font-size="14.00">show</text>
<text text-anchor="start" x="68" y="-585.3" font-family="Times,serif" font-size="14.00">update</text>
<polyline fill="none" stroke="black" points="60,-577.5 176,-577.5 "/>
<polyline fill="none" stroke="black" points="60,-553.5 176,-553.5 "/>
<text text-anchor="start" x="68" y="-538.3" font-family="Times,serif" font-size="14.00">_layout</text>
<text text-anchor="start" x="68" y="-523.3" font-family="Times,serif" font-size="14.00">habere_params</text>
<text text-anchor="start" x="68" y="-508.3" font-family="Times,serif" font-size="14.00">set_habere</text>
</g>
<!-- IndicadorEconomicosController -->
<g id="node6" class="node"><title>IndicadorEconomicosController</title>
<path fill="none" stroke="black" d="M652,-380.5C652,-380.5 819,-380.5 819,-380.5 825,-380.5 831,-386.5 831,-392.5 831,-392.5 831,-581.5 831,-581.5 831,-587.5 825,-593.5 819,-593.5 819,-593.5 652,-593.5 652,-593.5 646,-593.5 640,-587.5 640,-581.5 640,-581.5 640,-392.5 640,-392.5 640,-386.5 646,-380.5 652,-380.5"/>
<text text-anchor="middle" x="735.5" y="-578.3" font-family="Times,serif" font-size="14.00">IndicadorEconomicosController</text>
<polyline fill="none" stroke="black" points="640,-570.5 831,-570.5 "/>
<text text-anchor="start" x="648" y="-555.3" font-family="Times,serif" font-size="14.00">create</text>
<text text-anchor="start" x="648" y="-540.3" font-family="Times,serif" font-size="14.00">destroy</text>
<text text-anchor="start" x="648" y="-525.3" font-family="Times,serif" font-size="14.00">edit</text>
<text text-anchor="start" x="648" y="-510.3" font-family="Times,serif" font-size="14.00">index</text>
<text text-anchor="start" x="648" y="-495.3" font-family="Times,serif" font-size="14.00">new</text>
<text text-anchor="start" x="648" y="-480.3" font-family="Times,serif" font-size="14.00">show</text>
<text text-anchor="start" x="648" y="-465.3" font-family="Times,serif" font-size="14.00">update</text>
<polyline fill="none" stroke="black" points="640,-457.5 831,-457.5 "/>
<polyline fill="none" stroke="black" points="640,-433.5 831,-433.5 "/>
<text text-anchor="start" x="648" y="-418.3" font-family="Times,serif" font-size="14.00">_layout</text>
<text text-anchor="start" x="648" y="-403.3" font-family="Times,serif" font-size="14.00">indicador_economico_params</text>
<text text-anchor="start" x="648" y="-388.3" font-family="Times,serif" font-size="14.00">set_indicador_economico</text>
</g>
<!-- BancosController -->
<g id="node7" class="node"><title>BancosController</title>
<path fill="none" stroke="black" d="M92,-240.5C92,-240.5 180,-240.5 180,-240.5 186,-240.5 192,-246.5 192,-252.5 192,-252.5 192,-441.5 192,-441.5 192,-447.5 186,-453.5 180,-453.5 180,-453.5 92,-453.5 92,-453.5 86,-453.5 80,-447.5 80,-441.5 80,-441.5 80,-252.5 80,-252.5 80,-246.5 86,-240.5 92,-240.5"/>
<text text-anchor="middle" x="136" y="-438.3" font-family="Times,serif" font-size="14.00">BancosController</text>
<polyline fill="none" stroke="black" points="80,-430.5 192,-430.5 "/>
<text text-anchor="start" x="88" y="-415.3" font-family="Times,serif" font-size="14.00">create</text>
<text text-anchor="start" x="88" y="-400.3" font-family="Times,serif" font-size="14.00">destroy</text>
<text text-anchor="start" x="88" y="-385.3" font-family="Times,serif" font-size="14.00">edit</text>
<text text-anchor="start" x="88" y="-370.3" font-family="Times,serif" font-size="14.00">index</text>
<text text-anchor="start" x="88" y="-355.3" font-family="Times,serif" font-size="14.00">new</text>
<text text-anchor="start" x="88" y="-340.3" font-family="Times,serif" font-size="14.00">show</text>
<text text-anchor="start" x="88" y="-325.3" font-family="Times,serif" font-size="14.00">update</text>
<polyline fill="none" stroke="black" points="80,-317.5 192,-317.5 "/>
<polyline fill="none" stroke="black" points="80,-293.5 192,-293.5 "/>
<text text-anchor="start" x="88" y="-278.3" font-family="Times,serif" font-size="14.00">_layout</text>
<text text-anchor="start" x="88" y="-263.3" font-family="Times,serif" font-size="14.00">banco_params</text>
<text text-anchor="start" x="88" y="-248.3" font-family="Times,serif" font-size="14.00">set_banco</text>
</g>
<!-- SubcategoriaController -->
<g id="node8" class="node"><title>SubcategoriaController</title>
<path fill="none" stroke="black" d="M892,-680.5C892,-680.5 1011,-680.5 1011,-680.5 1017,-680.5 1023,-686.5 1023,-692.5 1023,-692.5 1023,-881.5 1023,-881.5 1023,-887.5 1017,-893.5 1011,-893.5 1011,-893.5 892,-893.5 892,-893.5 886,-893.5 880,-887.5 880,-881.5 880,-881.5 880,-692.5 880,-692.5 880,-686.5 886,-680.5 892,-680.5"/>
<text text-anchor="middle" x="951.5" y="-878.3" font-family="Times,serif" font-size="14.00">SubcategoriaController</text>
<polyline fill="none" stroke="black" points="880,-870.5 1023,-870.5 "/>
<text text-anchor="start" x="888" y="-855.3" font-family="Times,serif" font-size="14.00">create</text>
<text text-anchor="start" x="888" y="-840.3" font-family="Times,serif" font-size="14.00">destroy</text>
<text text-anchor="start" x="888" y="-825.3" font-family="Times,serif" font-size="14.00">edit</text>
<text text-anchor="start" x="888" y="-810.3" font-family="Times,serif" font-size="14.00">index</text>
<text text-anchor="start" x="888" y="-795.3" font-family="Times,serif" font-size="14.00">new</text>
<text text-anchor="start" x="888" y="-780.3" font-family="Times,serif" font-size="14.00">show</text>
<text text-anchor="start" x="888" y="-765.3" font-family="Times,serif" font-size="14.00">update</text>
<polyline fill="none" stroke="black" points="880,-757.5 1023,-757.5 "/>
<polyline fill="none" stroke="black" points="880,-733.5 1023,-733.5 "/>
<text text-anchor="start" x="888" y="-718.3" font-family="Times,serif" font-size="14.00">_layout</text>
<text text-anchor="start" x="888" y="-703.3" font-family="Times,serif" font-size="14.00">set_subcategorium</text>
<text text-anchor="start" x="888" y="-688.3" font-family="Times,serif" font-size="14.00">subcategorium_params</text>
</g>
<!-- EmpresasController -->
<g id="node9" class="node"><title>EmpresasController</title>
<path fill="none" stroke="black" d="M412,-120.5C412,-120.5 513,-120.5 513,-120.5 519,-120.5 525,-126.5 525,-132.5 525,-132.5 525,-321.5 525,-321.5 525,-327.5 519,-333.5 513,-333.5 513,-333.5 412,-333.5 412,-333.5 406,-333.5 400,-327.5 400,-321.5 400,-321.5 400,-132.5 400,-132.5 400,-126.5 406,-120.5 412,-120.5"/>
<text text-anchor="middle" x="462.5" y="-318.3" font-family="Times,serif" font-size="14.00">EmpresasController</text>
<polyline fill="none" stroke="black" points="400,-310.5 525,-310.5 "/>
<text text-anchor="start" x="408" y="-295.3" font-family="Times,serif" font-size="14.00">create</text>
<text text-anchor="start" x="408" y="-280.3" font-family="Times,serif" font-size="14.00">destroy</text>
<text text-anchor="start" x="408" y="-265.3" font-family="Times,serif" font-size="14.00">edit</text>
<text text-anchor="start" x="408" y="-250.3" font-family="Times,serif" font-size="14.00">index</text>
<text text-anchor="start" x="408" y="-235.3" font-family="Times,serif" font-size="14.00">new</text>
<text text-anchor="start" x="408" y="-220.3" font-family="Times,serif" font-size="14.00">show</text>
<text text-anchor="start" x="408" y="-205.3" font-family="Times,serif" font-size="14.00">update</text>
<polyline fill="none" stroke="black" points="400,-197.5 525,-197.5 "/>
<polyline fill="none" stroke="black" points="400,-173.5 525,-173.5 "/>
<text text-anchor="start" x="408" y="-158.3" font-family="Times,serif" font-size="14.00">_layout</text>
<text text-anchor="start" x="408" y="-143.3" font-family="Times,serif" font-size="14.00">empresa_params</text>
<text text-anchor="start" x="408" y="-128.3" font-family="Times,serif" font-size="14.00">set_empresa</text>
</g>
<!-- CertificatesController -->
<g id="node10" class="node"><title>CertificatesController</title>
<path fill="none" stroke="black" d="M572,-120.5C572,-120.5 682,-120.5 682,-120.5 688,-120.5 694,-126.5 694,-132.5 694,-132.5 694,-321.5 694,-321.5 694,-327.5 688,-333.5 682,-333.5 682,-333.5 572,-333.5 572,-333.5 566,-333.5 560,-327.5 560,-321.5 560,-321.5 560,-132.5 560,-132.5 560,-126.5 566,-120.5 572,-120.5"/>
<text text-anchor="middle" x="627" y="-318.3" font-family="Times,serif" font-size="14.00">CertificatesController</text>
<polyline fill="none" stroke="black" points="560,-310.5 694,-310.5 "/>
<text text-anchor="start" x="568" y="-295.3" font-family="Times,serif" font-size="14.00">create</text>
<text text-anchor="start" x="568" y="-280.3" font-family="Times,serif" font-size="14.00">destroy</text>
<text text-anchor="start" x="568" y="-265.3" font-family="Times,serif" font-size="14.00">edit</text>
<text text-anchor="start" x="568" y="-250.3" font-family="Times,serif" font-size="14.00">index</text>
<text text-anchor="start" x="568" y="-235.3" font-family="Times,serif" font-size="14.00">new</text>
<text text-anchor="start" x="568" y="-220.3" font-family="Times,serif" font-size="14.00">show</text>
<text text-anchor="start" x="568" y="-205.3" font-family="Times,serif" font-size="14.00">update</text>
<polyline fill="none" stroke="black" points="560,-197.5 694,-197.5 "/>
<polyline fill="none" stroke="black" points="560,-173.5 694,-173.5 "/>
<text text-anchor="start" x="568" y="-158.3" font-family="Times,serif" font-size="14.00">_layout</text>
<text text-anchor="start" x="568" y="-143.3" font-family="Times,serif" font-size="14.00">certificate_params</text>
<text text-anchor="start" x="568" y="-128.3" font-family="Times,serif" font-size="14.00">set_certificate</text>
</g>
<!-- ApplicationController -->
<g id="node11" class="node"><title>ApplicationController</title>
<path fill="none" stroke="black" d="M52,-40.5C52,-40.5 164,-40.5 164,-40.5 170,-40.5 176,-46.5 176,-52.5 176,-52.5 176,-196.5 176,-196.5 176,-202.5 170,-208.5 164,-208.5 164,-208.5 52,-208.5 52,-208.5 46,-208.5 40,-202.5 40,-196.5 40,-196.5 40,-52.5 40,-52.5 40,-46.5 46,-40.5 52,-40.5"/>
<text text-anchor="middle" x="108" y="-193.3" font-family="Times,serif" font-size="14.00">ApplicationController</text>
<polyline fill="none" stroke="black" points="40,-185.5 176,-185.5 "/>
<text text-anchor="start" x="48" y="-170.3" font-family="Times,serif" font-size="14.00">default_url_options</text>
<text text-anchor="start" x="48" y="-155.3" font-family="Times,serif" font-size="14.00">set_locale</text>
<polyline fill="none" stroke="black" points="40,-147.5 176,-147.5 "/>
<polyline fill="none" stroke="black" points="40,-123.5 176,-123.5 "/>
<text text-anchor="start" x="48" y="-108.3" font-family="Times,serif" font-size="14.00">_layout</text>
<text text-anchor="start" x="48" y="-93.3" font-family="Times,serif" font-size="14.00">authorize</text>
<text text-anchor="start" x="48" y="-78.3" font-family="Times,serif" font-size="14.00">current_user</text>
<text text-anchor="start" x="48" y="-63.3" font-family="Times,serif" font-size="14.00">lastCategories</text>
<text text-anchor="start" x="48" y="-48.3" font-family="Times,serif" font-size="14.00">lastCreated</text>
</g>
<!-- AfpsController -->
<g id="node12" class="node"><title>AfpsController</title>
<path fill="none" stroke="black" d="M1032,-0.5C1032,-0.5 1106,-0.5 1106,-0.5 1112,-0.5 1118,-6.5 1118,-12.5 1118,-12.5 1118,-201.5 1118,-201.5 1118,-207.5 1112,-213.5 1106,-213.5 1106,-213.5 1032,-213.5 1032,-213.5 1026,-213.5 1020,-207.5 1020,-201.5 1020,-201.5 1020,-12.5 1020,-12.5 1020,-6.5 1026,-0.5 1032,-0.5"/>
<text text-anchor="middle" x="1069" y="-198.3" font-family="Times,serif" font-size="14.00">AfpsController</text>
<polyline fill="none" stroke="black" points="1020,-190.5 1118,-190.5 "/>
<text text-anchor="start" x="1028" y="-175.3" font-family="Times,serif" font-size="14.00">create</text>
<text text-anchor="start" x="1028" y="-160.3" font-family="Times,serif" font-size="14.00">destroy</text>
<text text-anchor="start" x="1028" y="-145.3" font-family="Times,serif" font-size="14.00">edit</text>
<text text-anchor="start" x="1028" y="-130.3" font-family="Times,serif" font-size="14.00">index</text>
<text text-anchor="start" x="1028" y="-115.3" font-family="Times,serif" font-size="14.00">new</text>
<text text-anchor="start" x="1028" y="-100.3" font-family="Times,serif" font-size="14.00">show</text>
<text text-anchor="start" x="1028" y="-85.3" font-family="Times,serif" font-size="14.00">update</text>
<polyline fill="none" stroke="black" points="1020,-77.5 1118,-77.5 "/>
<polyline fill="none" stroke="black" points="1020,-53.5 1118,-53.5 "/>
<text text-anchor="start" x="1028" y="-38.3" font-family="Times,serif" font-size="14.00">_layout</text>
<text text-anchor="start" x="1028" y="-23.3" font-family="Times,serif" font-size="14.00">afp_params</text>
<text text-anchor="start" x="1028" y="-8.3" font-family="Times,serif" font-size="14.00">set_afp</text>
</g>
<!-- AsignacionsController -->
<g id="node13" class="node"><title>AsignacionsController</title>
<path fill="none" stroke="black" d="M712,-900.5C712,-900.5 827,-900.5 827,-900.5 833,-900.5 839,-906.5 839,-912.5 839,-912.5 839,-1101.5 839,-1101.5 839,-1107.5 833,-1113.5 827,-1113.5 827,-1113.5 712,-1113.5 712,-1113.5 706,-1113.5 700,-1107.5 700,-1101.5 700,-1101.5 700,-912.5 700,-912.5 700,-906.5 706,-900.5 712,-900.5"/>
<text text-anchor="middle" x="769.5" y="-1098.3" font-family="Times,serif" font-size="14.00">AsignacionsController</text>
<polyline fill="none" stroke="black" points="700,-1090.5 839,-1090.5 "/>
<text text-anchor="start" x="708" y="-1075.3" font-family="Times,serif" font-size="14.00">create</text>
<text text-anchor="start" x="708" y="-1060.3" font-family="Times,serif" font-size="14.00">destroy</text>
<text text-anchor="start" x="708" y="-1045.3" font-family="Times,serif" font-size="14.00">edit</text>
<text text-anchor="start" x="708" y="-1030.3" font-family="Times,serif" font-size="14.00">index</text>
<text text-anchor="start" x="708" y="-1015.3" font-family="Times,serif" font-size="14.00">new</text>
<text text-anchor="start" x="708" y="-1000.3" font-family="Times,serif" font-size="14.00">show</text>
<text text-anchor="start" x="708" y="-985.3" font-family="Times,serif" font-size="14.00">update</text>
<polyline fill="none" stroke="black" points="700,-977.5 839,-977.5 "/>
<polyline fill="none" stroke="black" points="700,-953.5 839,-953.5 "/>
<text text-anchor="start" x="708" y="-938.3" font-family="Times,serif" font-size="14.00">_layout</text>
<text text-anchor="start" x="708" y="-923.3" font-family="Times,serif" font-size="14.00">asignacion_params</text>
<text text-anchor="start" x="708" y="-908.3" font-family="Times,serif" font-size="14.00">set_asignacion</text>
</g>
<!-- TipocontratosController -->
<g id="node14" class="node"><title>TipocontratosController</title>
<path fill="none" stroke="black" d="M492,-640.5C492,-640.5 615,-640.5 615,-640.5 621,-640.5 627,-646.5 627,-652.5 627,-652.5 627,-841.5 627,-841.5 627,-847.5 621,-853.5 615,-853.5 615,-853.5 492,-853.5 492,-853.5 486,-853.5 480,-847.5 480,-841.5 480,-841.5 480,-652.5 480,-652.5 480,-646.5 486,-640.5 492,-640.5"/>
<text text-anchor="middle" x="553.5" y="-838.3" font-family="Times,serif" font-size="14.00">TipocontratosController</text>
<polyline fill="none" stroke="black" points="480,-830.5 627,-830.5 "/>
<text text-anchor="start" x="488" y="-815.3" font-family="Times,serif" font-size="14.00">create</text>
<text text-anchor="start" x="488" y="-800.3" font-family="Times,serif" font-size="14.00">destroy</text>
<text text-anchor="start" x="488" y="-785.3" font-family="Times,serif" font-size="14.00">edit</text>
<text text-anchor="start" x="488" y="-770.3" font-family="Times,serif" font-size="14.00">index</text>
<text text-anchor="start" x="488" y="-755.3" font-family="Times,serif" font-size="14.00">new</text>
<text text-anchor="start" x="488" y="-740.3" font-family="Times,serif" font-size="14.00">show</text>
<text text-anchor="start" x="488" y="-725.3" font-family="Times,serif" font-size="14.00">update</text>
<polyline fill="none" stroke="black" points="480,-717.5 627,-717.5 "/>
<polyline fill="none" stroke="black" points="480,-693.5 627,-693.5 "/>
<text text-anchor="start" x="488" y="-678.3" font-family="Times,serif" font-size="14.00">_layout</text>
<text text-anchor="start" x="488" y="-663.3" font-family="Times,serif" font-size="14.00">set_tipocontrato</text>
<text text-anchor="start" x="488" y="-648.3" font-family="Times,serif" font-size="14.00">tipocontrato_params</text>
</g>
<!-- CategoriaController -->
<g id="node15" class="node"><title>CategoriaController</title>
<path fill="none" stroke="black" d="M152,-880.5C152,-880.5 253,-880.5 253,-880.5 259,-880.5 265,-886.5 265,-892.5 265,-892.5 265,-1081.5 265,-1081.5 265,-1087.5 259,-1093.5 253,-1093.5 253,-1093.5 152,-1093.5 152,-1093.5 146,-1093.5 140,-1087.5 140,-1081.5 140,-1081.5 140,-892.5 140,-892.5 140,-886.5 146,-880.5 152,-880.5"/>
<text text-anchor="middle" x="202.5" y="-1078.3" font-family="Times,serif" font-size="14.00">CategoriaController</text>
<polyline fill="none" stroke="black" points="140,-1070.5 265,-1070.5 "/>
<text text-anchor="start" x="148" y="-1055.3" font-family="Times,serif" font-size="14.00">create</text>
<text text-anchor="start" x="148" y="-1040.3" font-family="Times,serif" font-size="14.00">destroy</text>
<text text-anchor="start" x="148" y="-1025.3" font-family="Times,serif" font-size="14.00">edit</text>
<text text-anchor="start" x="148" y="-1010.3" font-family="Times,serif" font-size="14.00">index</text>
<text text-anchor="start" x="148" y="-995.3" font-family="Times,serif" font-size="14.00">new</text>
<text text-anchor="start" x="148" y="-980.3" font-family="Times,serif" font-size="14.00">show</text>
<text text-anchor="start" x="148" y="-965.3" font-family="Times,serif" font-size="14.00">update</text>
<polyline fill="none" stroke="black" points="140,-957.5 265,-957.5 "/>
<polyline fill="none" stroke="black" points="140,-933.5 265,-933.5 "/>
<text text-anchor="start" x="148" y="-918.3" font-family="Times,serif" font-size="14.00">_layout</text>
<text text-anchor="start" x="148" y="-903.3" font-family="Times,serif" font-size="14.00">categorium_params</text>
<text text-anchor="start" x="148" y="-888.3" font-family="Times,serif" font-size="14.00">set_categorium</text>
</g>
<!-- BonificacionsController -->
<g id="node16" class="node"><title>BonificacionsController</title>
<path fill="none" stroke="black" d="M312,-720.5C312,-720.5 435,-720.5 435,-720.5 441,-720.5 447,-726.5 447,-732.5 447,-732.5 447,-921.5 447,-921.5 447,-927.5 441,-933.5 435,-933.5 435,-933.5 312,-933.5 312,-933.5 306,-933.5 300,-927.5 300,-921.5 300,-921.5 300,-732.5 300,-732.5 300,-726.5 306,-720.5 312,-720.5"/>
<text text-anchor="middle" x="373.5" y="-918.3" font-family="Times,serif" font-size="14.00">BonificacionsController</text>
<polyline fill="none" stroke="black" points="300,-910.5 447,-910.5 "/>
<text text-anchor="start" x="308" y="-895.3" font-family="Times,serif" font-size="14.00">create</text>
<text text-anchor="start" x="308" y="-880.3" font-family="Times,serif" font-size="14.00">destroy</text>
<text text-anchor="start" x="308" y="-865.3" font-family="Times,serif" font-size="14.00">edit</text>
<text text-anchor="start" x="308" y="-850.3" font-family="Times,serif" font-size="14.00">index</text>
<text text-anchor="start" x="308" y="-835.3" font-family="Times,serif" font-size="14.00">new</text>
<text text-anchor="start" x="308" y="-820.3" font-family="Times,serif" font-size="14.00">show</text>
<text text-anchor="start" x="308" y="-805.3" font-family="Times,serif" font-size="14.00">update</text>
<polyline fill="none" stroke="black" points="300,-797.5 447,-797.5 "/>
<polyline fill="none" stroke="black" points="300,-773.5 447,-773.5 "/>
<text text-anchor="start" x="308" y="-758.3" font-family="Times,serif" font-size="14.00">_layout</text>
<text text-anchor="start" x="308" y="-743.3" font-family="Times,serif" font-size="14.00">bonificacion_params</text>
<text text-anchor="start" x="308" y="-728.3" font-family="Times,serif" font-size="14.00">set_bonificacion</text>
</g>
<!-- SindicatosController -->
<g id="node17" class="node"><title>SindicatosController</title>
<path fill="none" stroke="black" d="M552,-900.5C552,-900.5 656,-900.5 656,-900.5 662,-900.5 668,-906.5 668,-912.5 668,-912.5 668,-1101.5 668,-1101.5 668,-1107.5 662,-1113.5 656,-1113.5 656,-1113.5 552,-1113.5 552,-1113.5 546,-1113.5 540,-1107.5 540,-1101.5 540,-1101.5 540,-912.5 540,-912.5 540,-906.5 546,-900.5 552,-900.5"/>
<text text-anchor="middle" x="604" y="-1098.3" font-family="Times,serif" font-size="14.00">SindicatosController</text>
<polyline fill="none" stroke="black" points="540,-1090.5 668,-1090.5 "/>
<text text-anchor="start" x="548" y="-1075.3" font-family="Times,serif" font-size="14.00">create</text>
<text text-anchor="start" x="548" y="-1060.3" font-family="Times,serif" font-size="14.00">destroy</text>
<text text-anchor="start" x="548" y="-1045.3" font-family="Times,serif" font-size="14.00">edit</text>
<text text-anchor="start" x="548" y="-1030.3" font-family="Times,serif" font-size="14.00">index</text>
<text text-anchor="start" x="548" y="-1015.3" font-family="Times,serif" font-size="14.00">new</text>
<text text-anchor="start" x="548" y="-1000.3" font-family="Times,serif" font-size="14.00">show</text>
<text text-anchor="start" x="548" y="-985.3" font-family="Times,serif" font-size="14.00">update</text>
<polyline fill="none" stroke="black" points="540,-977.5 668,-977.5 "/>
<polyline fill="none" stroke="black" points="540,-953.5 668,-953.5 "/>
<text text-anchor="start" x="548" y="-938.3" font-family="Times,serif" font-size="14.00">_layout</text>
<text text-anchor="start" x="548" y="-923.3" font-family="Times,serif" font-size="14.00">set_sindicato</text>
<text text-anchor="start" x="548" y="-908.3" font-family="Times,serif" font-size="14.00">sindicato_params</text>
</g>
<!-- LiquidacionsController -->
<g id="node18" class="node"><title>LiquidacionsController</title>
<path fill="none" stroke="black" d="M972,-940.5C972,-940.5 1091,-940.5 1091,-940.5 1097,-940.5 1103,-946.5 1103,-952.5 1103,-952.5 1103,-1141.5 1103,-1141.5 1103,-1147.5 1097,-1153.5 1091,-1153.5 1091,-1153.5 972,-1153.5 972,-1153.5 966,-1153.5 960,-1147.5 960,-1141.5 960,-1141.5 960,-952.5 960,-952.5 960,-946.5 966,-940.5 972,-940.5"/>
<text text-anchor="middle" x="1031.5" y="-1138.3" font-family="Times,serif" font-size="14.00">LiquidacionsController</text>
<polyline fill="none" stroke="black" points="960,-1130.5 1103,-1130.5 "/>
<text text-anchor="start" x="968" y="-1115.3" font-family="Times,serif" font-size="14.00">create</text>
<text text-anchor="start" x="968" y="-1100.3" font-family="Times,serif" font-size="14.00">destroy</text>
<text text-anchor="start" x="968" y="-1085.3" font-family="Times,serif" font-size="14.00">edit</text>
<text text-anchor="start" x="968" y="-1070.3" font-family="Times,serif" font-size="14.00">index</text>
<text text-anchor="start" x="968" y="-1055.3" font-family="Times,serif" font-size="14.00">new</text>
<text text-anchor="start" x="968" y="-1040.3" font-family="Times,serif" font-size="14.00">show</text>
<text text-anchor="start" x="968" y="-1025.3" font-family="Times,serif" font-size="14.00">update</text>
<polyline fill="none" stroke="black" points="960,-1017.5 1103,-1017.5 "/>
<polyline fill="none" stroke="black" points="960,-993.5 1103,-993.5 "/>
<text text-anchor="start" x="968" y="-978.3" font-family="Times,serif" font-size="14.00">_layout</text>
<text text-anchor="start" x="968" y="-963.3" font-family="Times,serif" font-size="14.00">liquidacion_params</text>
<text text-anchor="start" x="968" y="-948.3" font-family="Times,serif" font-size="14.00">set_liquidacion</text>
</g>
<!-- ImpuestoUnicosController -->
<g id="node19" class="node"><title>ImpuestoUnicosController</title>
<path fill="none" stroke="black" d="M232,-460.5C232,-460.5 369,-460.5 369,-460.5 375,-460.5 381,-466.5 381,-472.5 381,-472.5 381,-661.5 381,-661.5 381,-667.5 375,-673.5 369,-673.5 369,-673.5 232,-673.5 232,-673.5 226,-673.5 220,-667.5 220,-661.5 220,-661.5 220,-472.5 220,-472.5 220,-466.5 226,-460.5 232,-460.5"/>
<text text-anchor="middle" x="300.5" y="-658.3" font-family="Times,serif" font-size="14.00">ImpuestoUnicosController</text>
<polyline fill="none" stroke="black" points="220,-650.5 381,-650.5 "/>
<text text-anchor="start" x="228" y="-635.3" font-family="Times,serif" font-size="14.00">create</text>
<text text-anchor="start" x="228" y="-620.3" font-family="Times,serif" font-size="14.00">destroy</text>
<text text-anchor="start" x="228" y="-605.3" font-family="Times,serif" font-size="14.00">edit</text>
<text text-anchor="start" x="228" y="-590.3" font-family="Times,serif" font-size="14.00">index</text>
<text text-anchor="start" x="228" y="-575.3" font-family="Times,serif" font-size="14.00">new</text>
<text text-anchor="start" x="228" y="-560.3" font-family="Times,serif" font-size="14.00">show</text>
<text text-anchor="start" x="228" y="-545.3" font-family="Times,serif" font-size="14.00">update</text>
<polyline fill="none" stroke="black" points="220,-537.5 381,-537.5 "/>
<polyline fill="none" stroke="black" points="220,-513.5 381,-513.5 "/>
<text text-anchor="start" x="228" y="-498.3" font-family="Times,serif" font-size="14.00">_layout</text>
<text text-anchor="start" x="228" y="-483.3" font-family="Times,serif" font-size="14.00">impuesto_unico_params</text>
<text text-anchor="start" x="228" y="-468.3" font-family="Times,serif" font-size="14.00">set_impuesto_unico</text>
</g>
<!-- TopesLegalesController -->
<g id="node20" class="node"><title>TopesLegalesController</title>
<path fill="none" stroke="black" d="M232,-200.5C232,-200.5 355,-200.5 355,-200.5 361,-200.5 367,-206.5 367,-212.5 367,-212.5 367,-401.5 367,-401.5 367,-407.5 361,-413.5 355,-413.5 355,-413.5 232,-413.5 232,-413.5 226,-413.5 220,-407.5 220,-401.5 220,-401.5 220,-212.5 220,-212.5 220,-206.5 226,-200.5 232,-200.5"/>
<text text-anchor="middle" x="293.5" y="-398.3" font-family="Times,serif" font-size="14.00">TopesLegalesController</text>
<polyline fill="none" stroke="black" points="220,-390.5 367,-390.5 "/>
<text text-anchor="start" x="228" y="-375.3" font-family="Times,serif" font-size="14.00">create</text>
<text text-anchor="start" x="228" y="-360.3" font-family="Times,serif" font-size="14.00">destroy</text>
<text text-anchor="start" x="228" y="-345.3" font-family="Times,serif" font-size="14.00">edit</text>
<text text-anchor="start" x="228" y="-330.3" font-family="Times,serif" font-size="14.00">index</text>
<text text-anchor="start" x="228" y="-315.3" font-family="Times,serif" font-size="14.00">new</text>
<text text-anchor="start" x="228" y="-300.3" font-family="Times,serif" font-size="14.00">show</text>
<text text-anchor="start" x="228" y="-285.3" font-family="Times,serif" font-size="14.00">update</text>
<polyline fill="none" stroke="black" points="220,-277.5 367,-277.5 "/>
<polyline fill="none" stroke="black" points="220,-253.5 367,-253.5 "/>
<text text-anchor="start" x="228" y="-238.3" font-family="Times,serif" font-size="14.00">_layout</text>
<text text-anchor="start" x="228" y="-223.3" font-family="Times,serif" font-size="14.00">set_topes_legale</text>
<text text-anchor="start" x="228" y="-208.3" font-family="Times,serif" font-size="14.00">topes_legale_params</text>
</g>
<!-- PageController -->
<g id="node21" class="node"><title>PageController</title>
<path fill="none" stroke="black" d="M1032,-260.5C1032,-260.5 1106,-260.5 1106,-260.5 1112,-260.5 1118,-266.5 1118,-272.5 1118,-272.5 1118,-341.5 1118,-341.5 1118,-347.5 1112,-353.5 1106,-353.5 1106,-353.5 1032,-353.5 1032,-353.5 1026,-353.5 1020,-347.5 1020,-341.5 1020,-341.5 1020,-272.5 1020,-272.5 1020,-266.5 1026,-260.5 1032,-260.5"/>
<text text-anchor="middle" x="1069" y="-338.3" font-family="Times,serif" font-size="14.00">PageController</text>
<polyline fill="none" stroke="black" points="1020,-330.5 1118,-330.5 "/>
<text text-anchor="start" x="1028" y="-315.3" font-family="Times,serif" font-size="14.00">index</text>
<polyline fill="none" stroke="black" points="1020,-307.5 1118,-307.5 "/>
<polyline fill="none" stroke="black" points="1020,-283.5 1118,-283.5 "/>
<text text-anchor="start" x="1028" y="-268.3" font-family="Times,serif" font-size="14.00">_layout</text>
</g>
<!-- DescuentoAdicionalsController -->
<g id="node22" class="node"><title>DescuentoAdicionalsController</title>
<path fill="none" stroke="black" d="M672,-640.5C672,-640.5 836,-640.5 836,-640.5 842,-640.5 848,-646.5 848,-652.5 848,-652.5 848,-841.5 848,-841.5 848,-847.5 842,-853.5 836,-853.5 836,-853.5 672,-853.5 672,-853.5 666,-853.5 660,-847.5 660,-841.5 660,-841.5 660,-652.5 660,-652.5 660,-646.5 666,-640.5 672,-640.5"/>
<text text-anchor="middle" x="754" y="-838.3" font-family="Times,serif" font-size="14.00">DescuentoAdicionalsController</text>
<polyline fill="none" stroke="black" points="660,-830.5 848,-830.5 "/>
<text text-anchor="start" x="668" y="-815.3" font-family="Times,serif" font-size="14.00">create</text>
<text text-anchor="start" x="668" y="-800.3" font-family="Times,serif" font-size="14.00">destroy</text>
<text text-anchor="start" x="668" y="-785.3" font-family="Times,serif" font-size="14.00">edit</text>
<text text-anchor="start" x="668" y="-770.3" font-family="Times,serif" font-size="14.00">index</text>
<text text-anchor="start" x="668" y="-755.3" font-family="Times,serif" font-size="14.00">new</text>
<text text-anchor="start" x="668" y="-740.3" font-family="Times,serif" font-size="14.00">show</text>
<text text-anchor="start" x="668" y="-725.3" font-family="Times,serif" font-size="14.00">update</text>
<polyline fill="none" stroke="black" points="660,-717.5 848,-717.5 "/>
<polyline fill="none" stroke="black" points="660,-693.5 848,-693.5 "/>
<text text-anchor="start" x="668" y="-678.3" font-family="Times,serif" font-size="14.00">_layout</text>
<text text-anchor="start" x="668" y="-663.3" font-family="Times,serif" font-size="14.00">descuento_adicional_params</text>
<text text-anchor="start" x="668" y="-648.3" font-family="Times,serif" font-size="14.00">set_descuento_adicional</text>
</g>
<!-- IsapresController -->
<g id="node23" class="node"><title>IsapresController</title>
<path fill="none" stroke="black" d="M412,-980.5C412,-980.5 498,-980.5 498,-980.5 504,-980.5 510,-986.5 510,-992.5 510,-992.5 510,-1181.5 510,-1181.5 510,-1187.5 504,-1193.5 498,-1193.5 498,-1193.5 412,-1193.5 412,-1193.5 406,-1193.5 400,-1187.5 400,-1181.5 400,-1181.5 400,-992.5 400,-992.5 400,-986.5 406,-980.5 412,-980.5"/>
<text text-anchor="middle" x="455" y="-1178.3" font-family="Times,serif" font-size="14.00">IsapresController</text>
<polyline fill="none" stroke="black" points="400,-1170.5 510,-1170.5 "/>
<text text-anchor="start" x="408" y="-1155.3" font-family="Times,serif" font-size="14.00">create</text>
<text text-anchor="start" x="408" y="-1140.3" font-family="Times,serif" font-size="14.00">destroy</text>
<text text-anchor="start" x="408" y="-1125.3" font-family="Times,serif" font-size="14.00">edit</text>
<text text-anchor="start" x="408" y="-1110.3" font-family="Times,serif" font-size="14.00">index</text>
<text text-anchor="start" x="408" y="-1095.3" font-family="Times,serif" font-size="14.00">new</text>
<text text-anchor="start" x="408" y="-1080.3" font-family="Times,serif" font-size="14.00">show</text>
<text text-anchor="start" x="408" y="-1065.3" font-family="Times,serif" font-size="14.00">update</text>
<polyline fill="none" stroke="black" points="400,-1057.5 510,-1057.5 "/>
<polyline fill="none" stroke="black" points="400,-1033.5 510,-1033.5 "/>
<text text-anchor="start" x="408" y="-1018.3" font-family="Times,serif" font-size="14.00">_layout</text>
<text text-anchor="start" x="408" y="-1003.3" font-family="Times,serif" font-size="14.00">isapre_params</text>
<text text-anchor="start" x="408" y="-988.3" font-family="Times,serif" font-size="14.00">set_isapre</text>
</g>
<!-- SessionsController -->
<g id="node24" class="node"><title>SessionsController</title>
<path fill="none" stroke="black" d="M232,-40.5C232,-40.5 327,-40.5 327,-40.5 333,-40.5 339,-46.5 339,-52.5 339,-52.5 339,-151.5 339,-151.5 339,-157.5 333,-163.5 327,-163.5 327,-163.5 232,-163.5 232,-163.5 226,-163.5 220,-157.5 220,-151.5 220,-151.5 220,-52.5 220,-52.5 220,-46.5 226,-40.5 232,-40.5"/>
<text text-anchor="middle" x="279.5" y="-148.3" font-family="Times,serif" font-size="14.00">SessionsController</text>
<polyline fill="none" stroke="black" points="220,-140.5 339,-140.5 "/>
<text text-anchor="start" x="228" y="-125.3" font-family="Times,serif" font-size="14.00">create</text>
<text text-anchor="start" x="228" y="-110.3" font-family="Times,serif" font-size="14.00">destroy</text>
<text text-anchor="start" x="228" y="-95.3" font-family="Times,serif" font-size="14.00">new</text>
<polyline fill="none" stroke="black" points="220,-87.5 339,-87.5 "/>
<polyline fill="none" stroke="black" points="220,-63.5 339,-63.5 "/>
<text text-anchor="start" x="228" y="-48.3" font-family="Times,serif" font-size="14.00">_layout</text>
</g>
<!-- UsersController -->
<g id="node25" class="node"><title>UsersController</title>
<path fill="none" stroke="black" d="M12,-1020.5C12,-1020.5 91,-1020.5 91,-1020.5 97,-1020.5 103,-1026.5 103,-1032.5 103,-1032.5 103,-1221.5 103,-1221.5 103,-1227.5 97,-1233.5 91,-1233.5 91,-1233.5 12,-1233.5 12,-1233.5 6,-1233.5 0,-1227.5 0,-1221.5 0,-1221.5 0,-1032.5 0,-1032.5 0,-1026.5 6,-1020.5 12,-1020.5"/>
<text text-anchor="middle" x="51.5" y="-1218.3" font-family="Times,serif" font-size="14.00">UsersController</text>
<polyline fill="none" stroke="black" points="0,-1210.5 103,-1210.5 "/>
<text text-anchor="start" x="8" y="-1195.3" font-family="Times,serif" font-size="14.00">create</text>
<text text-anchor="start" x="8" y="-1180.3" font-family="Times,serif" font-size="14.00">destroy</text>
<text text-anchor="start" x="8" y="-1165.3" font-family="Times,serif" font-size="14.00">edit</text>
<text text-anchor="start" x="8" y="-1150.3" font-family="Times,serif" font-size="14.00">index</text>
<text text-anchor="start" x="8" y="-1135.3" font-family="Times,serif" font-size="14.00">new</text>
<text text-anchor="start" x="8" y="-1120.3" font-family="Times,serif" font-size="14.00">show</text>
<text text-anchor="start" x="8" y="-1105.3" font-family="Times,serif" font-size="14.00">update</text>
<polyline fill="none" stroke="black" points="0,-1097.5 103,-1097.5 "/>
<polyline fill="none" stroke="black" points="0,-1073.5 103,-1073.5 "/>
<text text-anchor="start" x="8" y="-1058.3" font-family="Times,serif" font-size="14.00">_layout</text>
<text text-anchor="start" x="8" y="-1043.3" font-family="Times,serif" font-size="14.00">set_user</text>
<text text-anchor="start" x="8" y="-1028.3" font-family="Times,serif" font-size="14.00">user_params</text>
</g>
</g>
</svg>
