<?xml version="1.0" encoding="UTF-8" standalone="no"?>
<!DOCTYPE svg PUBLIC "-//W3C//DTD SVG 1.1//EN"
 "http://www.w3.org/Graphics/SVG/1.1/DTD/svg11.dtd">
<!-- Generated by graphviz version 2.36.0 (20140111.2315)
 -->
<!-- Title: models_diagram Pages: 1 -->
<svg width="1664pt" height="302pt"
 viewBox="0.00 0.00 1664.00 302.00" xmlns="http://www.w3.org/2000/svg" xmlns:xlink="http://www.w3.org/1999/xlink">
<g id="graph0" class="graph" transform="scale(1 1) rotate(0) translate(4 298)">
<title>models_diagram</title>
<polygon fill="none" stroke="none" points="-4,4 -4,-298 1660,-298 1660,4 -4,4"/>
<!-- _diagram_info -->
<g id="node1" class="node"><title>_diagram_info</title>
<text text-anchor="start" x="390" y="-279.6" font-family="Times,serif" font-size="13.00">Models diagram</text>
<text text-anchor="start" x="390" y="-265.6" font-family="Times,serif" font-size="13.00">Date: Jan 10 2017 &#45; 15:39</text>
<text text-anchor="start" x="390" y="-251.6" font-family="Times,serif" font-size="13.00">Migration version: 20161223162935</text>
<text text-anchor="start" x="390" y="-237.6" font-family="Times,serif" font-size="13.00">Generated by RailRoady 1.5.2</text>
<text text-anchor="start" x="390" y="-223.6" font-family="Times,serif" font-size="13.00">http://railroady.prestonlee.com</text>
</g>
<!-- AsignacionFamiliar -->
<g id="node2" class="node"><title>AsignacionFamiliar</title>
<ellipse fill="none" stroke="black" cx="695" cy="-255" rx="81.3646" ry="18"/>
<text text-anchor="middle" x="695" y="-251.3" font-family="Times,serif" font-size="14.00">AsignacionFamiliar</text>
</g>
<!-- Banco -->
<g id="node3" class="node"><title>Banco</title>
<ellipse fill="none" stroke="black" cx="33" cy="-162" rx="33.2209" ry="18"/>
<text text-anchor="middle" x="33" y="-158.3" font-family="Times,serif" font-size="14.00">Banco</text>
</g>
<!-- Personal -->
<g id="node11" class="node"><title>Personal</title>
<ellipse fill="none" stroke="black" cx="467" cy="-90" rx="40.4202" ry="18"/>
<text text-anchor="middle" x="467" y="-86.3" font-family="Times,serif" font-size="14.00">Personal</text>
</g>
<!-- Banco&#45;&gt;Personal -->
<g id="edge1" class="edge"><title>Banco&#45;&gt;Personal</title>
<path fill="none" stroke="#1cf478" d="M65.8913,-147.07C69.2693,-145.92 72.6797,-144.868 76,-144 195.953,-112.653 341.728,-99.139 416.858,-93.9106"/>
<ellipse fill="none" stroke="#1cf478" cx="61.8855" cy="-148.526" rx="4.00001" ry="4.00001"/>
<polygon fill="#1cf478" stroke="#1cf478" points="417.003,-93.9009 427.283,-97.7166 421.992,-93.5639 426.98,-93.2269 426.98,-93.2269 426.98,-93.2269 421.992,-93.5639 426.677,-88.7371 417.003,-93.9009 417.003,-93.9009"/>
</g>
<!-- Isapre -->
<g id="node4" class="node"><title>Isapre</title>
<ellipse fill="none" stroke="black" cx="117" cy="-162" rx="32.2457" ry="18"/>
<text text-anchor="middle" x="117" y="-158.3" font-family="Times,serif" font-size="14.00">Isapre</text>
</g>
<!-- Isapre&#45;&gt;Personal -->
<g id="edge2" class="edge"><title>Isapre&#45;&gt;Personal</title>
<path fill="none" stroke="#9423a4" d="M148.88,-146.982C151.931,-145.883 155.004,-144.866 158,-144 247.712,-118.061 355.97,-103.084 417.617,-96.0274"/>
<ellipse fill="none" stroke="#9423a4" cx="145.133" cy="-148.414" rx="4.00001" ry="4.00001"/>
<polygon fill="#9423a4" stroke="#9423a4" points="417.898,-95.996 428.337,-99.3536 422.866,-95.4388 427.835,-94.8816 427.835,-94.8816 427.835,-94.8816 422.866,-95.4388 427.334,-90.4096 417.898,-95.996 417.898,-95.996"/>
</g>
<!-- DescuentoAdicional -->
<g id="node5" class="node"><title>DescuentoAdicional</title>
<ellipse fill="none" stroke="black" cx="250" cy="-162" rx="82.3139" ry="18"/>
<text text-anchor="middle" x="250" y="-158.3" font-family="Times,serif" font-size="14.00">DescuentoAdicional</text>
</g>
<!-- DescuentoAdicional&#45;&gt;Personal -->
<g id="edge3" class="edge"><title>DescuentoAdicional&#45;&gt;Personal</title>
<path fill="none" stroke="#658073" d="M301.993,-144.228C339.74,-132.052 390.142,-115.793 425.269,-104.461"/>
<ellipse fill="none" stroke="#658073" cx="297.982" cy="-145.522" rx="4.00001" ry="4.00001"/>
<polygon fill="#658073" stroke="#658073" points="425.681,-104.329 436.58,-105.541 430.44,-102.794 435.198,-101.259 435.198,-101.259 435.198,-101.259 430.44,-102.794 433.817,-96.9759 425.681,-104.329 425.681,-104.329"/>
</g>
<!-- Centrocosto -->
<g id="node6" class="node"><title>Centrocosto</title>
<ellipse fill="none" stroke="black" cx="404" cy="-162" rx="52.9443" ry="18"/>
<text text-anchor="middle" x="404" y="-158.3" font-family="Times,serif" font-size="14.00">Centrocosto</text>
</g>
<!-- Centrocosto&#45;&gt;Personal -->
<g id="edge4" class="edge"><title>Centrocosto&#45;&gt;Personal</title>
<path fill="none" stroke="#83f10a" d="M424.437,-138.293C431.19,-130.789 438.721,-122.421 445.548,-114.835"/>
<ellipse fill="none" stroke="#83f10a" cx="421.606" cy="-141.438" rx="4.00002" ry="4.00002"/>
<polygon fill="#83f10a" stroke="#83f10a" points="445.921,-114.421 455.956,-109.998 449.266,-110.705 452.611,-106.988 452.611,-106.988 452.611,-106.988 449.266,-110.705 449.266,-103.978 445.921,-114.421 445.921,-114.421"/>
</g>
<!-- Subcategorium -->
<g id="node7" class="node"><title>Subcategorium</title>
<ellipse fill="none" stroke="black" cx="847" cy="-162" rx="64.0172" ry="18"/>
<text text-anchor="middle" x="847" y="-158.3" font-family="Times,serif" font-size="14.00">Subcategorium</text>
</g>
<!-- Bonificacion -->
<g id="node9" class="node"><title>Bonificacion</title>
<ellipse fill="none" stroke="black" cx="722" cy="-90" rx="55.3436" ry="18"/>
<text text-anchor="middle" x="722" y="-86.3" font-family="Times,serif" font-size="14.00">Bonificacion</text>
</g>
<!-- Subcategorium&#45;&gt;Bonificacion -->
<g id="edge7" class="edge"><title>Subcategorium&#45;&gt;Bonificacion</title>
<path fill="none" stroke="#e806f1" d="M812.373,-141.609C795.34,-132.07 774.833,-120.587 757.663,-110.971"/>
<ellipse fill="none" stroke="#e806f1" cx="816.078" cy="-143.684" rx="4.00002" ry="4.00002"/>
<polygon fill="#e806f1" stroke="#e806f1" points="757.236,-110.732 750.709,-101.92 752.873,-108.289 748.51,-105.846 748.51,-105.846 748.51,-105.846 752.873,-108.289 746.312,-109.772 757.236,-110.732 757.236,-110.732"/>
</g>
<!-- Subcategorium&#45;&gt;Personal -->
<g id="edge8" class="edge"><title>Subcategorium&#45;&gt;Personal</title>
<path fill="none" stroke="#0b0e9b" d="M791.819,-147.794C785.816,-146.463 779.787,-145.172 774,-144 682.798,-125.524 575.522,-107.944 514.969,-98.4003"/>
<ellipse fill="none" stroke="#0b0e9b" cx="796.062" cy="-148.748" rx="4.00001" ry="4.00001"/>
<polygon fill="#0b0e9b" stroke="#0b0e9b" points="514.821,-98.377 505.64,-92.3805 509.881,-97.6015 504.942,-96.826 504.942,-96.826 504.942,-96.826 509.881,-97.6015 504.244,-101.272 514.821,-98.377 514.821,-98.377"/>
</g>
<!-- Asignacion -->
<g id="node15" class="node"><title>Asignacion</title>
<ellipse fill="none" stroke="black" cx="847" cy="-90" rx="50.5427" ry="18"/>
<text text-anchor="middle" x="847" y="-86.3" font-family="Times,serif" font-size="14.00">Asignacion</text>
</g>
<!-- Subcategorium&#45;&gt;Asignacion -->
<g id="edge6" class="edge"><title>Subcategorium&#45;&gt;Asignacion</title>
<path fill="none" stroke="#ee0314" d="M847,-135.64C847,-130.063 847,-124.132 847,-118.476"/>
<ellipse fill="none" stroke="#ee0314" cx="847" cy="-139.697" rx="4" ry="4"/>
<polygon fill="#ee0314" stroke="#ee0314" points="847,-118.104 851.5,-108.104 847,-113.104 847,-108.104 847,-108.104 847,-108.104 847,-113.104 842.5,-108.104 847,-118.104 847,-118.104"/>
</g>
<!-- Habere -->
<g id="node16" class="node"><title>Habere</title>
<ellipse fill="none" stroke="black" cx="952" cy="-90" rx="36.096" ry="18"/>
<text text-anchor="middle" x="952" y="-86.3" font-family="Times,serif" font-size="14.00">Habere</text>
</g>
<!-- Subcategorium&#45;&gt;Habere -->
<g id="edge5" class="edge"><title>Subcategorium&#45;&gt;Habere</title>
<path fill="none" stroke="#a2135e" d="M877.915,-140.39C891.971,-131.019 908.527,-119.982 922.419,-110.721"/>
<ellipse fill="none" stroke="#a2135e" cx="874.154" cy="-142.897" rx="4.00002" ry="4.00002"/>
<polygon fill="#a2135e" stroke="#a2135e" points="922.79,-110.474 933.606,-108.671 926.95,-107.7 931.11,-104.927 931.11,-104.927 931.11,-104.927 926.95,-107.7 928.614,-101.182 922.79,-110.474 922.79,-110.474"/>
</g>
<!-- TopesLegale -->
<g id="node8" class="node"><title>TopesLegale</title>
<ellipse fill="none" stroke="black" cx="974" cy="-255" rx="55.3436" ry="18"/>
<text text-anchor="middle" x="974" y="-251.3" font-family="Times,serif" font-size="14.00">TopesLegale</text>
</g>
<!-- Tipocontrato -->
<g id="node10" class="node"><title>Tipocontrato</title>
<ellipse fill="none" stroke="black" cx="531" cy="-162" rx="55.3436" ry="18"/>
<text text-anchor="middle" x="531" y="-158.3" font-family="Times,serif" font-size="14.00">Tipocontrato</text>
</g>
<!-- Tipocontrato&#45;&gt;Personal -->
<g id="edge9" class="edge"><title>Tipocontrato&#45;&gt;Personal</title>
<path fill="none" stroke="#4fbbc3" d="M510.239,-138.293C503.378,-130.789 495.728,-122.421 488.792,-114.835"/>
<ellipse fill="none" stroke="#4fbbc3" cx="513.134" cy="-141.459" rx="4.00002" ry="4.00002"/>
<polygon fill="#4fbbc3" stroke="#4fbbc3" points="488.365,-114.368 484.939,-103.952 484.992,-110.678 481.618,-106.988 481.618,-106.988 481.618,-106.988 484.992,-110.678 478.297,-110.025 488.365,-114.368 488.365,-114.368"/>
</g>
<!-- Liquidacion -->
<g id="node17" class="node"><title>Liquidacion</title>
<ellipse fill="none" stroke="black" cx="467" cy="-18" rx="52.9443" ry="18"/>
<text text-anchor="middle" x="467" y="-14.3" font-family="Times,serif" font-size="14.00">Liquidacion</text>
</g>
<!-- Personal&#45;&gt;Liquidacion -->
<g id="edge10" class="edge"><title>Personal&#45;&gt;Liquidacion</title>
<path fill="none" stroke="#8c0135" d="M467,-63.6398C467,-58.0629 467,-52.1319 467,-46.4761"/>
<ellipse fill="none" stroke="#8c0135" cx="467" cy="-67.6966" rx="4" ry="4"/>
<polygon fill="#8c0135" stroke="#8c0135" points="467,-46.1043 471.5,-36.1043 467,-41.1043 467,-36.1043 467,-36.1043 467,-36.1043 467,-41.1043 462.5,-36.1044 467,-46.1043 467,-46.1043"/>
</g>
<!-- Sindicato -->
<g id="node12" class="node"><title>Sindicato</title>
<ellipse fill="none" stroke="black" cx="649" cy="-162" rx="44.2946" ry="18"/>
<text text-anchor="middle" x="649" y="-158.3" font-family="Times,serif" font-size="14.00">Sindicato</text>
</g>
<!-- Sindicato&#45;&gt;Personal -->
<g id="edge11" class="edge"><title>Sindicato&#45;&gt;Personal</title>
<path fill="none" stroke="#f67331" d="M610.244,-146.094C579.542,-134.285 536.841,-117.862 506.06,-106.023"/>
<ellipse fill="none" stroke="#f67331" cx="614.393" cy="-147.69" rx="4.00001" ry="4.00001"/>
<polygon fill="#f67331" stroke="#f67331" points="505.848,-105.942 498.13,-98.1518 501.182,-104.147 496.515,-102.352 496.515,-102.352 496.515,-102.352 501.182,-104.147 494.9,-106.552 505.848,-105.942 505.848,-105.942"/>
</g>
<!-- Empresa -->
<g id="node13" class="node"><title>Empresa</title>
<ellipse fill="none" stroke="black" cx="1090" cy="-255" rx="42.3701" ry="18"/>
<text text-anchor="middle" x="1090" y="-251.3" font-family="Times,serif" font-size="14.00">Empresa</text>
</g>
<!-- ImpuestoUnico -->
<g id="node14" class="node"><title>ImpuestoUnico</title>
<ellipse fill="none" stroke="black" cx="1216" cy="-255" rx="65.4659" ry="18"/>
<text text-anchor="middle" x="1216" y="-251.3" font-family="Times,serif" font-size="14.00">ImpuestoUnico</text>
</g>
<!-- Afp -->
<g id="node18" class="node"><title>Afp</title>
<ellipse fill="none" stroke="black" cx="738" cy="-162" rx="27" ry="18"/>
<text text-anchor="middle" x="738" y="-158.3" font-family="Times,serif" font-size="14.00">Afp</text>
</g>
<!-- Afp&#45;&gt;Personal -->
<g id="edge12" class="edge"><title>Afp&#45;&gt;Personal</title>
<path fill="none" stroke="#909afe" d="M709.746,-146.955C707.157,-145.882 704.549,-144.877 702,-144 638.814,-122.251 562.96,-107.005 514.864,-98.6167"/>
<ellipse fill="none" stroke="#909afe" cx="713.722" cy="-148.706" rx="4.00002" ry="4.00002"/>
<polygon fill="#909afe" stroke="#909afe" points="514.597,-98.571 505.501,-92.4458 509.669,-97.726 504.741,-96.881 504.741,-96.881 504.741,-96.881 509.669,-97.726 503.98,-101.316 514.597,-98.571 514.597,-98.571"/>
</g>
<!-- Categorium -->
<g id="node19" class="node"><title>Categorium</title>
<ellipse fill="none" stroke="black" cx="847" cy="-255" rx="52.4675" ry="18"/>
<text text-anchor="middle" x="847" y="-251.3" font-family="Times,serif" font-size="14.00">Categorium</text>
</g>
<!-- Categorium&#45;&gt;Subcategorium -->
<g id="edge13" class="edge"><title>Categorium&#45;&gt;Subcategorium</title>
<path fill="none" stroke="#46915c" d="M847,-228.729C847,-216.725 847,-202.362 847,-190.129"/>
<ellipse fill="none" stroke="#46915c" cx="847" cy="-232.884" rx="4" ry="4"/>
<polygon fill="#46915c" stroke="#46915c" points="847,-190.04 851.5,-180.04 847,-185.04 847,-180.04 847,-180.04 847,-180.04 847,-185.04 842.5,-180.04 847,-190.04 847,-190.04"/>
</g>
<!-- Certificate -->
<g id="node20" class="node"><title>Certificate</title>
<ellipse fill="none" stroke="black" cx="1348" cy="-255" rx="48.1437" ry="18"/>
<text text-anchor="middle" x="1348" y="-251.3" font-family="Times,serif" font-size="14.00">Certificate</text>
</g>
<!-- User -->
<g id="node21" class="node"><title>User</title>
<ellipse fill="none" stroke="black" cx="1441" cy="-255" rx="26.949" ry="18"/>
<text text-anchor="middle" x="1441" y="-251.3" font-family="Times,serif" font-size="14.00">User</text>
</g>
<!-- IndicadorEconomico -->
<g id="node22" class="node"><title>IndicadorEconomico</title>
<ellipse fill="none" stroke="black" cx="1571" cy="-255" rx="85.2138" ry="18"/>
<text text-anchor="middle" x="1571" y="-251.3" font-family="Times,serif" font-size="14.00">IndicadorEconomico</text>
</g>
</g>
</svg>
