<?xml version="1.0" encoding="UTF-8" standalone="no"?>
<!DOCTYPE svg PUBLIC "-//W3C//DTD SVG 1.1//EN"
 "http://www.w3.org/Graphics/SVG/1.1/DTD/svg11.dtd">
<!-- Generated by graphviz version 2.36.0 (20140111.2315)
 -->
<!-- Title: models_diagram Pages: 1 -->
<svg width="2558pt" height="1234pt"
 viewBox="0.00 0.00 2558.00 1234.00" xmlns="http://www.w3.org/2000/svg" xmlns:xlink="http://www.w3.org/1999/xlink">
<g id="graph0" class="graph" transform="scale(1 1) rotate(0) translate(4 1230)">
<title>models_diagram</title>
<polygon fill="none" stroke="none" points="-4,4 -4,-1230 2554,-1230 2554,4 -4,4"/>
<!-- _diagram_info -->
<g id="node1" class="node"><title>_diagram_info</title>
<text text-anchor="start" x="856" y="-1129.6" font-family="Times,serif" font-size="13.00">Models diagram</text>
<text text-anchor="start" x="856" y="-1115.6" font-family="Times,serif" font-size="13.00">Date: Jan 10 2017 &#45; 15:39</text>
<text text-anchor="start" x="856" y="-1101.6" font-family="Times,serif" font-size="13.00">Migration version: 20161223162935</text>
<text text-anchor="start" x="856" y="-1087.6" font-family="Times,serif" font-size="13.00">Generated by RailRoady 1.5.2</text>
<text text-anchor="start" x="856" y="-1073.6" font-family="Times,serif" font-size="13.00">http://railroady.prestonlee.com</text>
</g>
<!-- AsignacionFamiliar -->
<g id="node2" class="node"><title>AsignacionFamiliar</title>
<path fill="none" stroke="black" d="M1092.5,-1037C1092.5,-1037 1223.5,-1037 1223.5,-1037 1229.5,-1037 1235.5,-1043 1235.5,-1049 1235.5,-1049 1235.5,-1161 1235.5,-1161 1235.5,-1167 1229.5,-1173 1223.5,-1173 1223.5,-1173 1092.5,-1173 1092.5,-1173 1086.5,-1173 1080.5,-1167 1080.5,-1161 1080.5,-1161 1080.5,-1049 1080.5,-1049 1080.5,-1043 1086.5,-1037 1092.5,-1037"/>
<text text-anchor="middle" x="1158" y="-1157.8" font-family="Times,serif" font-size="14.00">AsignacionFamiliar</text>
<polyline fill="none" stroke="black" points="1080.5,-1150 1235.5,-1150 "/>
<text text-anchor="start" x="1088.5" y="-1134.8" font-family="Times,serif" font-size="14.00">id :int(11)</text>
<text text-anchor="start" x="1088.5" y="-1119.8" font-family="Times,serif" font-size="14.00">tramo :varchar(255)</text>
<text text-anchor="start" x="1088.5" y="-1104.8" font-family="Times,serif" font-size="14.00">monto :int(11)</text>
<text text-anchor="start" x="1088.5" y="-1089.8" font-family="Times,serif" font-size="14.00">requisitoMinimo :int(11)</text>
<text text-anchor="start" x="1088.5" y="-1074.8" font-family="Times,serif" font-size="14.00">requisitoMaximo :int(11)</text>
<text text-anchor="start" x="1088.5" y="-1059.8" font-family="Times,serif" font-size="14.00">created_at :datetime</text>
<text text-anchor="start" x="1088.5" y="-1044.8" font-family="Times,serif" font-size="14.00">updated_at :datetime</text>
</g>
<!-- Banco -->
<g id="node3" class="node"><title>Banco</title>
<path fill="none" stroke="black" d="M11.5,-834C11.5,-834 144.5,-834 144.5,-834 150.5,-834 156.5,-840 156.5,-846 156.5,-846 156.5,-928 156.5,-928 156.5,-934 150.5,-940 144.5,-940 144.5,-940 11.5,-940 11.5,-940 5.5,-940 -0.5,-934 -0.5,-928 -0.5,-928 -0.5,-846 -0.5,-846 -0.5,-840 5.5,-834 11.5,-834"/>
<text text-anchor="middle" x="78" y="-924.8" font-family="Times,serif" font-size="14.00">Banco</text>
<polyline fill="none" stroke="black" points="-0.5,-917 156.5,-917 "/>
<text text-anchor="start" x="7.5" y="-901.8" font-family="Times,serif" font-size="14.00">id :int(11)</text>
<text text-anchor="start" x="7.5" y="-886.8" font-family="Times,serif" font-size="14.00">banco :varchar(255)</text>
<text text-anchor="start" x="7.5" y="-871.8" font-family="Times,serif" font-size="14.00">tipo_cuenta :varchar(255)</text>
<text text-anchor="start" x="7.5" y="-856.8" font-family="Times,serif" font-size="14.00">created_at :datetime</text>
<text text-anchor="start" x="7.5" y="-841.8" font-family="Times,serif" font-size="14.00">updated_at :datetime</text>
</g>
<!-- Personal -->
<g id="node11" class="node"><title>Personal</title>
<path fill="none" stroke="black" d="M602.5,-458.5C602.5,-458.5 779.5,-458.5 779.5,-458.5 785.5,-458.5 791.5,-464.5 791.5,-470.5 791.5,-470.5 791.5,-777.5 791.5,-777.5 791.5,-783.5 785.5,-789.5 779.5,-789.5 779.5,-789.5 602.5,-789.5 602.5,-789.5 596.5,-789.5 590.5,-783.5 590.5,-777.5 590.5,-777.5 590.5,-470.5 590.5,-470.5 590.5,-464.5 596.5,-458.5 602.5,-458.5"/>
<text text-anchor="middle" x="691" y="-774.3" font-family="Times,serif" font-size="14.00">Personal</text>
<polyline fill="none" stroke="black" points="590.5,-766.5 791.5,-766.5 "/>
<text text-anchor="start" x="598.5" y="-751.3" font-family="Times,serif" font-size="14.00">id :int(11)</text>
<text text-anchor="start" x="598.5" y="-736.3" font-family="Times,serif" font-size="14.00">nombre_personal :varchar(255)</text>
<text text-anchor="start" x="598.5" y="-721.3" font-family="Times,serif" font-size="14.00">apellidop_personal :varchar(255)</text>
<text text-anchor="start" x="598.5" y="-706.3" font-family="Times,serif" font-size="14.00">apellidom_personal :varchar(255)</text>
<text text-anchor="start" x="598.5" y="-691.3" font-family="Times,serif" font-size="14.00">rut_personal :varchar(255)</text>
<text text-anchor="start" x="598.5" y="-676.3" font-family="Times,serif" font-size="14.00">isapre_id :int(11)</text>
<text text-anchor="start" x="598.5" y="-661.3" font-family="Times,serif" font-size="14.00">banco_id :int(11)</text>
<text text-anchor="start" x="598.5" y="-646.3" font-family="Times,serif" font-size="14.00">subcategorium_id :int(11)</text>
<text text-anchor="start" x="598.5" y="-631.3" font-family="Times,serif" font-size="14.00">tipocontrato_id :int(11)</text>
<text text-anchor="start" x="598.5" y="-616.3" font-family="Times,serif" font-size="14.00">centrocosto_id :int(11)</text>
<text text-anchor="start" x="598.5" y="-601.3" font-family="Times,serif" font-size="14.00">afp_id :int(11)</text>
<text text-anchor="start" x="598.5" y="-586.3" font-family="Times,serif" font-size="14.00">personal_activo :tinyint(1)</text>
<text text-anchor="start" x="598.5" y="-571.3" font-family="Times,serif" font-size="14.00">fecha_ingreso :date</text>
<text text-anchor="start" x="598.5" y="-556.3" font-family="Times,serif" font-size="14.00">sindicato_id :int(11)</text>
<text text-anchor="start" x="598.5" y="-541.3" font-family="Times,serif" font-size="14.00">numero_cuenta :int(11)</text>
<text text-anchor="start" x="598.5" y="-526.3" font-family="Times,serif" font-size="14.00">created_at :datetime</text>
<text text-anchor="start" x="598.5" y="-511.3" font-family="Times,serif" font-size="14.00">updated_at :datetime</text>
<text text-anchor="start" x="598.5" y="-496.3" font-family="Times,serif" font-size="14.00">cargas_familiar :int(11)</text>
<text text-anchor="start" x="598.5" y="-481.3" font-family="Times,serif" font-size="14.00">cotizacion_voluntaria :int(11)</text>
<text text-anchor="start" x="598.5" y="-466.3" font-family="Times,serif" font-size="14.00">descuento_isapre :int(11)</text>
</g>
<!-- Banco&#45;&gt;Personal -->
<g id="edge1" class="edge"><title>Banco&#45;&gt;Personal</title>
<path fill="none" stroke="#271451" d="M157.909,-829.863C160.279,-828.53 162.646,-827.239 165,-826 302.306,-753.751 471.532,-693.831 580.326,-658.721"/>
<ellipse fill="none" stroke="#271451" cx="154.258" cy="-831.976" rx="4.00002" ry="4.00002"/>
<polygon fill="#271451" stroke="#271451" points="580.488,-658.669 591.386,-659.895 585.249,-657.14 590.009,-655.61 590.009,-655.61 590.009,-655.61 585.249,-657.14 588.633,-651.326 580.488,-658.669 580.488,-658.669"/>
</g>
<!-- Isapre -->
<g id="node4" class="node"><title>Isapre</title>
<path fill="none" stroke="black" d="M186.5,-841.5C186.5,-841.5 293.5,-841.5 293.5,-841.5 299.5,-841.5 305.5,-847.5 305.5,-853.5 305.5,-853.5 305.5,-920.5 305.5,-920.5 305.5,-926.5 299.5,-932.5 293.5,-932.5 293.5,-932.5 186.5,-932.5 186.5,-932.5 180.5,-932.5 174.5,-926.5 174.5,-920.5 174.5,-920.5 174.5,-853.5 174.5,-853.5 174.5,-847.5 180.5,-841.5 186.5,-841.5"/>
<text text-anchor="middle" x="240" y="-917.3" font-family="Times,serif" font-size="14.00">Isapre</text>
<polyline fill="none" stroke="black" points="174.5,-909.5 305.5,-909.5 "/>
<text text-anchor="start" x="182.5" y="-894.3" font-family="Times,serif" font-size="14.00">id :int(11)</text>
<text text-anchor="start" x="182.5" y="-879.3" font-family="Times,serif" font-size="14.00">isapre :varchar(255)</text>
<text text-anchor="start" x="182.5" y="-864.3" font-family="Times,serif" font-size="14.00">created_at :datetime</text>
<text text-anchor="start" x="182.5" y="-849.3" font-family="Times,serif" font-size="14.00">updated_at :datetime</text>
</g>
<!-- Isapre&#45;&gt;Personal -->
<g id="edge2" class="edge"><title>Isapre&#45;&gt;Personal</title>
<path fill="none" stroke="#b8b92c" d="M299.131,-836.44C304.078,-832.793 309.072,-829.268 314,-826 400.132,-768.882 504.187,-714.396 581.139,-676.598"/>
<ellipse fill="none" stroke="#b8b92c" cx="295.624" cy="-839.074" rx="4.00002" ry="4.00002"/>
<polygon fill="#b8b92c" stroke="#b8b92c" points="581.404,-676.468 592.364,-676.114 585.895,-674.27 590.386,-672.072 590.386,-672.072 590.386,-672.072 585.895,-674.27 588.408,-668.03 581.404,-676.468 581.404,-676.468"/>
</g>
<!-- DescuentoAdicional -->
<g id="node5" class="node"><title>DescuentoAdicional</title>
<path fill="none" stroke="black" d="M335.5,-834C335.5,-834 482.5,-834 482.5,-834 488.5,-834 494.5,-840 494.5,-846 494.5,-846 494.5,-928 494.5,-928 494.5,-934 488.5,-940 482.5,-940 482.5,-940 335.5,-940 335.5,-940 329.5,-940 323.5,-934 323.5,-928 323.5,-928 323.5,-846 323.5,-846 323.5,-840 329.5,-834 335.5,-834"/>
<text text-anchor="middle" x="409" y="-924.8" font-family="Times,serif" font-size="14.00">DescuentoAdicional</text>
<polyline fill="none" stroke="black" points="323.5,-917 494.5,-917 "/>
<text text-anchor="start" x="331.5" y="-901.8" font-family="Times,serif" font-size="14.00">id :int(11)</text>
<text text-anchor="start" x="331.5" y="-886.8" font-family="Times,serif" font-size="14.00">descuento_adicional :int(11)</text>
<text text-anchor="start" x="331.5" y="-871.8" font-family="Times,serif" font-size="14.00">detalle :varchar(255)</text>
<text text-anchor="start" x="331.5" y="-856.8" font-family="Times,serif" font-size="14.00">created_at :datetime</text>
<text text-anchor="start" x="331.5" y="-841.8" font-family="Times,serif" font-size="14.00">updated_at :datetime</text>
</g>
<!-- DescuentoAdicional&#45;&gt;Personal -->
<g id="edge3" class="edge"><title>DescuentoAdicional&#45;&gt;Personal</title>
<path fill="none" stroke="#ab492b" d="M471.357,-828.286C504.124,-797.96 545.221,-759.923 582.977,-724.979"/>
<ellipse fill="none" stroke="#ab492b" cx="468.325" cy="-831.093" rx="4.00002" ry="4.00002"/>
<polygon fill="#ab492b" stroke="#ab492b" points="583.141,-724.827 593.536,-721.337 586.81,-721.431 590.48,-718.035 590.48,-718.035 590.48,-718.035 586.81,-721.431 587.423,-714.732 583.141,-724.827 583.141,-724.827"/>
</g>
<!-- Centrocosto -->
<g id="node6" class="node"><title>Centrocosto</title>
<path fill="none" stroke="black" d="M525,-826.5C525,-826.5 671,-826.5 671,-826.5 677,-826.5 683,-832.5 683,-838.5 683,-838.5 683,-935.5 683,-935.5 683,-941.5 677,-947.5 671,-947.5 671,-947.5 525,-947.5 525,-947.5 519,-947.5 513,-941.5 513,-935.5 513,-935.5 513,-838.5 513,-838.5 513,-832.5 519,-826.5 525,-826.5"/>
<text text-anchor="middle" x="598" y="-932.3" font-family="Times,serif" font-size="14.00">Centrocosto</text>
<polyline fill="none" stroke="black" points="513,-924.5 683,-924.5 "/>
<text text-anchor="start" x="521" y="-909.3" font-family="Times,serif" font-size="14.00">id :int(11)</text>
<text text-anchor="start" x="521" y="-894.3" font-family="Times,serif" font-size="14.00">nombre :varchar(255)</text>
<text text-anchor="start" x="521" y="-879.3" font-family="Times,serif" font-size="14.00">codigo :varchar(255)</text>
<text text-anchor="start" x="521" y="-864.3" font-family="Times,serif" font-size="14.00">detalle_centro :varchar(255)</text>
<text text-anchor="start" x="521" y="-849.3" font-family="Times,serif" font-size="14.00">created_at :datetime</text>
<text text-anchor="start" x="521" y="-834.3" font-family="Times,serif" font-size="14.00">updated_at :datetime</text>
</g>
<!-- Centrocosto&#45;&gt;Personal -->
<g id="edge4" class="edge"><title>Centrocosto&#45;&gt;Personal</title>
<path fill="none" stroke="#9d82a9" d="M621.945,-818.801C624.164,-812.573 626.473,-806.092 628.844,-799.438"/>
<ellipse fill="none" stroke="#9d82a9" cx="620.562" cy="-822.681" rx="4.00001" ry="4.00001"/>
<polygon fill="#9d82a9" stroke="#9d82a9" points="629.002,-798.995 636.597,-791.085 630.68,-794.285 632.358,-789.575 632.358,-789.575 632.358,-789.575 630.68,-794.285 628.119,-788.065 629.002,-798.995 629.002,-798.995"/>
</g>
<!-- Subcategorium -->
<g id="node7" class="node"><title>Subcategorium</title>
<path fill="none" stroke="black" d="M1256,-834C1256,-834 1394,-834 1394,-834 1400,-834 1406,-840 1406,-846 1406,-846 1406,-928 1406,-928 1406,-934 1400,-940 1394,-940 1394,-940 1256,-940 1256,-940 1250,-940 1244,-934 1244,-928 1244,-928 1244,-846 1244,-846 1244,-840 1250,-834 1256,-834"/>
<text text-anchor="middle" x="1325" y="-924.8" font-family="Times,serif" font-size="14.00">Subcategorium</text>
<polyline fill="none" stroke="black" points="1244,-917 1406,-917 "/>
<text text-anchor="start" x="1252" y="-901.8" font-family="Times,serif" font-size="14.00">id :int(11)</text>
<text text-anchor="start" x="1252" y="-886.8" font-family="Times,serif" font-size="14.00">subcategoria :varchar(255)</text>
<text text-anchor="start" x="1252" y="-871.8" font-family="Times,serif" font-size="14.00">categorium_id :int(11)</text>
<text text-anchor="start" x="1252" y="-856.8" font-family="Times,serif" font-size="14.00">created_at :datetime</text>
<text text-anchor="start" x="1252" y="-841.8" font-family="Times,serif" font-size="14.00">updated_at :datetime</text>
</g>
<!-- Bonificacion -->
<g id="node9" class="node"><title>Bonificacion</title>
<path fill="none" stroke="black" d="M1058,-563.5C1058,-563.5 1198,-563.5 1198,-563.5 1204,-563.5 1210,-569.5 1210,-575.5 1210,-575.5 1210,-672.5 1210,-672.5 1210,-678.5 1204,-684.5 1198,-684.5 1198,-684.5 1058,-684.5 1058,-684.5 1052,-684.5 1046,-678.5 1046,-672.5 1046,-672.5 1046,-575.5 1046,-575.5 1046,-569.5 1052,-563.5 1058,-563.5"/>
<text text-anchor="middle" x="1128" y="-669.3" font-family="Times,serif" font-size="14.00">Bonificacion</text>
<polyline fill="none" stroke="black" points="1046,-661.5 1210,-661.5 "/>
<text text-anchor="start" x="1054" y="-646.3" font-family="Times,serif" font-size="14.00">id :int(11)</text>
<text text-anchor="start" x="1054" y="-631.3" font-family="Times,serif" font-size="14.00">bono :int(11)</text>
<text text-anchor="start" x="1054" y="-616.3" font-family="Times,serif" font-size="14.00">detalle_bono :varchar(255)</text>
<text text-anchor="start" x="1054" y="-601.3" font-family="Times,serif" font-size="14.00">subcategorium_id :int(11)</text>
<text text-anchor="start" x="1054" y="-586.3" font-family="Times,serif" font-size="14.00">created_at :datetime</text>
<text text-anchor="start" x="1054" y="-571.3" font-family="Times,serif" font-size="14.00">updated_at :datetime</text>
</g>
<!-- Subcategorium&#45;&gt;Bonificacion -->
<g id="edge7" class="edge"><title>Subcategorium&#45;&gt;Bonificacion</title>
<path fill="none" stroke="#972fcf" d="M1254.35,-828.085C1241.83,-816.177 1229.46,-803.218 1219,-790 1195.81,-760.698 1175.2,-724.695 1159.48,-693.805"/>
<ellipse fill="none" stroke="#972fcf" cx="1257.59" cy="-831.11" rx="4.00002" ry="4.00002"/>
<polygon fill="#972fcf" stroke="#972fcf" points="1159.46,-693.756 1158.99,-682.8 1157.21,-689.287 1154.97,-684.818 1154.97,-684.818 1154.97,-684.818 1157.21,-689.287 1150.95,-686.837 1159.46,-693.756 1159.46,-693.756"/>
</g>
<!-- Subcategorium&#45;&gt;Personal -->
<g id="edge8" class="edge"><title>Subcategorium&#45;&gt;Personal</title>
<path fill="none" stroke="#e397de" d="M1243.9,-830.335C1240.6,-828.778 1237.3,-827.325 1234,-826 1151.4,-792.835 1121.68,-817.394 1037,-790 955.056,-763.492 867.54,-721.619 801.027,-686.69"/>
<ellipse fill="none" stroke="#e397de" cx="1247.49" cy="-832.119" rx="4.00002" ry="4.00002"/>
<polygon fill="#e397de" stroke="#e397de" points="800.627,-686.478 793.885,-677.83 796.205,-684.144 791.784,-681.809 791.784,-681.809 791.784,-681.809 796.205,-684.144 789.683,-685.789 800.627,-686.478 800.627,-686.478"/>
</g>
<!-- Asignacion -->
<g id="node15" class="node"><title>Asignacion</title>
<path fill="none" stroke="black" d="M1240,-563.5C1240,-563.5 1410,-563.5 1410,-563.5 1416,-563.5 1422,-569.5 1422,-575.5 1422,-575.5 1422,-672.5 1422,-672.5 1422,-678.5 1416,-684.5 1410,-684.5 1410,-684.5 1240,-684.5 1240,-684.5 1234,-684.5 1228,-678.5 1228,-672.5 1228,-672.5 1228,-575.5 1228,-575.5 1228,-569.5 1234,-563.5 1240,-563.5"/>
<text text-anchor="middle" x="1325" y="-669.3" font-family="Times,serif" font-size="14.00">Asignacion</text>
<polyline fill="none" stroke="black" points="1228,-661.5 1422,-661.5 "/>
<text text-anchor="start" x="1236" y="-646.3" font-family="Times,serif" font-size="14.00">id :int(11)</text>
<text text-anchor="start" x="1236" y="-631.3" font-family="Times,serif" font-size="14.00">asignacion :int(11)</text>
<text text-anchor="start" x="1236" y="-616.3" font-family="Times,serif" font-size="14.00">detalle_asignacion :varchar(255)</text>
<text text-anchor="start" x="1236" y="-601.3" font-family="Times,serif" font-size="14.00">subcategorium_id :int(11)</text>
<text text-anchor="start" x="1236" y="-586.3" font-family="Times,serif" font-size="14.00">created_at :datetime</text>
<text text-anchor="start" x="1236" y="-571.3" font-family="Times,serif" font-size="14.00">updated_at :datetime</text>
</g>
<!-- Subcategorium&#45;&gt;Asignacion -->
<g id="edge6" class="edge"><title>Subcategorium&#45;&gt;Asignacion</title>
<path fill="none" stroke="#813f0a" d="M1325,-825.546C1325,-786.561 1325,-735.722 1325,-694.987"/>
<ellipse fill="none" stroke="#813f0a" cx="1325" cy="-829.81" rx="4" ry="4"/>
<polygon fill="#813f0a" stroke="#813f0a" points="1325,-694.862 1329.5,-684.862 1325,-689.862 1325,-684.862 1325,-684.862 1325,-684.862 1325,-689.862 1320.5,-684.862 1325,-694.862 1325,-694.862"/>
</g>
<!-- Habere -->
<g id="node16" class="node"><title>Habere</title>
<path fill="none" stroke="black" d="M1452,-556C1452,-556 1586,-556 1586,-556 1592,-556 1598,-562 1598,-568 1598,-568 1598,-680 1598,-680 1598,-686 1592,-692 1586,-692 1586,-692 1452,-692 1452,-692 1446,-692 1440,-686 1440,-680 1440,-680 1440,-568 1440,-568 1440,-562 1446,-556 1452,-556"/>
<text text-anchor="middle" x="1519" y="-676.8" font-family="Times,serif" font-size="14.00">Habere</text>
<polyline fill="none" stroke="black" points="1440,-669 1598,-669 "/>
<text text-anchor="start" x="1448" y="-653.8" font-family="Times,serif" font-size="14.00">id :int(11)</text>
<text text-anchor="start" x="1448" y="-638.8" font-family="Times,serif" font-size="14.00">sueldo_base :int(11)</text>
<text text-anchor="start" x="1448" y="-623.8" font-family="Times,serif" font-size="14.00">horas_pactadas :float</text>
<text text-anchor="start" x="1448" y="-608.8" font-family="Times,serif" font-size="14.00">valor_hora :float</text>
<text text-anchor="start" x="1448" y="-593.8" font-family="Times,serif" font-size="14.00">subcategorium_id :int(11)</text>
<text text-anchor="start" x="1448" y="-578.8" font-family="Times,serif" font-size="14.00">created_at :datetime</text>
<text text-anchor="start" x="1448" y="-563.8" font-family="Times,serif" font-size="14.00">updated_at :datetime</text>
</g>
<!-- Subcategorium&#45;&gt;Habere -->
<g id="edge5" class="edge"><title>Subcategorium&#45;&gt;Habere</title>
<path fill="none" stroke="#370fda" d="M1395.06,-828.092C1407.46,-816.184 1419.69,-803.223 1430,-790 1450.95,-763.137 1469.65,-730.657 1484.43,-701.644"/>
<ellipse fill="none" stroke="#370fda" cx="1391.87" cy="-831.103" rx="4.00002" ry="4.00002"/>
<polygon fill="#370fda" stroke="#370fda" points="1484.61,-701.295 1493.12,-694.376 1486.85,-696.826 1489.09,-692.357 1489.09,-692.357 1489.09,-692.357 1486.85,-696.826 1485.07,-690.339 1484.61,-701.295 1484.61,-701.295"/>
</g>
<!-- TopesLegale -->
<g id="node8" class="node"><title>TopesLegale</title>
<path fill="none" stroke="black" d="M1426.5,-1029.5C1426.5,-1029.5 1533.5,-1029.5 1533.5,-1029.5 1539.5,-1029.5 1545.5,-1035.5 1545.5,-1041.5 1545.5,-1041.5 1545.5,-1168.5 1545.5,-1168.5 1545.5,-1174.5 1539.5,-1180.5 1533.5,-1180.5 1533.5,-1180.5 1426.5,-1180.5 1426.5,-1180.5 1420.5,-1180.5 1414.5,-1174.5 1414.5,-1168.5 1414.5,-1168.5 1414.5,-1041.5 1414.5,-1041.5 1414.5,-1035.5 1420.5,-1029.5 1426.5,-1029.5"/>
<text text-anchor="middle" x="1480" y="-1165.3" font-family="Times,serif" font-size="14.00">TopesLegale</text>
<polyline fill="none" stroke="black" points="1414.5,-1157.5 1545.5,-1157.5 "/>
<text text-anchor="start" x="1422.5" y="-1142.3" font-family="Times,serif" font-size="14.00">id :int(11)</text>
<text text-anchor="start" x="1422.5" y="-1127.3" font-family="Times,serif" font-size="14.00">topeMinimo :int(11)</text>
<text text-anchor="start" x="1422.5" y="-1112.3" font-family="Times,serif" font-size="14.00">topeMaximo :int(11)</text>
<text text-anchor="start" x="1422.5" y="-1097.3" font-family="Times,serif" font-size="14.00">created_at :datetime</text>
<text text-anchor="start" x="1422.5" y="-1082.3" font-family="Times,serif" font-size="14.00">updated_at :datetime</text>
<text text-anchor="start" x="1422.5" y="-1067.3" font-family="Times,serif" font-size="14.00">valor_uf :int(11)</text>
<text text-anchor="start" x="1422.5" y="-1052.3" font-family="Times,serif" font-size="14.00">cantidad_uf :float</text>
<text text-anchor="start" x="1422.5" y="-1037.3" font-family="Times,serif" font-size="14.00">detalle :varchar(255)</text>
</g>
<!-- Tipocontrato -->
<g id="node10" class="node"><title>Tipocontrato</title>
<path fill="none" stroke="black" d="M713,-841.5C713,-841.5 855,-841.5 855,-841.5 861,-841.5 867,-847.5 867,-853.5 867,-853.5 867,-920.5 867,-920.5 867,-926.5 861,-932.5 855,-932.5 855,-932.5 713,-932.5 713,-932.5 707,-932.5 701,-926.5 701,-920.5 701,-920.5 701,-853.5 701,-853.5 701,-847.5 707,-841.5 713,-841.5"/>
<text text-anchor="middle" x="784" y="-917.3" font-family="Times,serif" font-size="14.00">Tipocontrato</text>
<polyline fill="none" stroke="black" points="701,-909.5 867,-909.5 "/>
<text text-anchor="start" x="709" y="-894.3" font-family="Times,serif" font-size="14.00">id :int(11)</text>
<text text-anchor="start" x="709" y="-879.3" font-family="Times,serif" font-size="14.00">tipo_contrato :varchar(255)</text>
<text text-anchor="start" x="709" y="-864.3" font-family="Times,serif" font-size="14.00">created_at :datetime</text>
<text text-anchor="start" x="709" y="-849.3" font-family="Times,serif" font-size="14.00">updated_at :datetime</text>
</g>
<!-- Tipocontrato&#45;&gt;Personal -->
<g id="edge9" class="edge"><title>Tipocontrato&#45;&gt;Personal</title>
<path fill="none" stroke="#422ea0" d="M765.399,-833.798C761.619,-823.189 757.449,-811.485 753.07,-799.197"/>
<ellipse fill="none" stroke="#422ea0" cx="766.776" cy="-837.661" rx="4.00001" ry="4.00001"/>
<polygon fill="#422ea0" stroke="#422ea0" points="753.041,-799.115 753.923,-788.184 751.363,-794.405 749.684,-789.695 749.684,-789.695 749.684,-789.695 751.363,-794.405 745.445,-791.205 753.041,-799.115 753.041,-799.115"/>
</g>
<!-- Liquidacion -->
<g id="node17" class="node"><title>Liquidacion</title>
<path fill="none" stroke="black" d="M609,-0.5C609,-0.5 773,-0.5 773,-0.5 779,-0.5 785,-6.5 785,-12.5 785,-12.5 785,-409.5 785,-409.5 785,-415.5 779,-421.5 773,-421.5 773,-421.5 609,-421.5 609,-421.5 603,-421.5 597,-415.5 597,-409.5 597,-409.5 597,-12.5 597,-12.5 597,-6.5 603,-0.5 609,-0.5"/>
<text text-anchor="middle" x="691" y="-406.3" font-family="Times,serif" font-size="14.00">Liquidacion</text>
<polyline fill="none" stroke="black" points="597,-398.5 785,-398.5 "/>
<text text-anchor="start" x="605" y="-383.3" font-family="Times,serif" font-size="14.00">id :int(11)</text>
<text text-anchor="start" x="605" y="-368.3" font-family="Times,serif" font-size="14.00">asignacion_id :int(11)</text>
<text text-anchor="start" x="605" y="-353.3" font-family="Times,serif" font-size="14.00">habere_id :int(11)</text>
<text text-anchor="start" x="605" y="-338.3" font-family="Times,serif" font-size="14.00">bonificacion_id :int(11)</text>
<text text-anchor="start" x="605" y="-323.3" font-family="Times,serif" font-size="14.00">descuento_adicional_id :int(11)</text>
<text text-anchor="start" x="605" y="-308.3" font-family="Times,serif" font-size="14.00">personal_id :int(11)</text>
<text text-anchor="start" x="605" y="-293.3" font-family="Times,serif" font-size="14.00">fecha_pago :date</text>
<text text-anchor="start" x="605" y="-278.3" font-family="Times,serif" font-size="14.00">porcentaje_afp :float</text>
<text text-anchor="start" x="605" y="-263.3" font-family="Times,serif" font-size="14.00">descuento_afp :int(11)</text>
<text text-anchor="start" x="605" y="-248.3" font-family="Times,serif" font-size="14.00">descuento_isapre :int(11)</text>
<text text-anchor="start" x="605" y="-233.3" font-family="Times,serif" font-size="14.00">impuesto :int(11)</text>
<text text-anchor="start" x="605" y="-218.3" font-family="Times,serif" font-size="14.00">cotizacion_voluntaria :int(11)</text>
<text text-anchor="start" x="605" y="-203.3" font-family="Times,serif" font-size="14.00">horas_trabajadas :float</text>
<text text-anchor="start" x="605" y="-188.3" font-family="Times,serif" font-size="14.00">remuneracion :int(11)</text>
<text text-anchor="start" x="605" y="-173.3" font-family="Times,serif" font-size="14.00">cantidad_horas_extra :int(11)</text>
<text text-anchor="start" x="605" y="-158.3" font-family="Times,serif" font-size="14.00">horas_extra :int(11)</text>
<text text-anchor="start" x="605" y="-143.3" font-family="Times,serif" font-size="14.00">vacaciones :float</text>
<text text-anchor="start" x="605" y="-128.3" font-family="Times,serif" font-size="14.00">total_imponible :int(11)</text>
<text text-anchor="start" x="605" y="-113.3" font-family="Times,serif" font-size="14.00">sindicato :int(11)</text>
<text text-anchor="start" x="605" y="-98.3" font-family="Times,serif" font-size="14.00">total_haberes :int(11)</text>
<text text-anchor="start" x="605" y="-83.3" font-family="Times,serif" font-size="14.00">desc_legales :int(11)</text>
<text text-anchor="start" x="605" y="-68.3" font-family="Times,serif" font-size="14.00">desc_varios :int(11)</text>
<text text-anchor="start" x="605" y="-53.3" font-family="Times,serif" font-size="14.00">liquido_pagar :int(11)</text>
<text text-anchor="start" x="605" y="-38.3" font-family="Times,serif" font-size="14.00">created_at :datetime</text>
<text text-anchor="start" x="605" y="-23.3" font-family="Times,serif" font-size="14.00">updated_at :datetime</text>
<text text-anchor="start" x="605" y="-8.3" font-family="Times,serif" font-size="14.00">asignacion_familiar :int(11)</text>
</g>
<!-- Personal&#45;&gt;Liquidacion -->
<g id="edge10" class="edge"><title>Personal&#45;&gt;Liquidacion</title>
<path fill="none" stroke="#d89921" d="M691,-450.475C691,-444.341 691,-438.166 691,-431.973"/>
<ellipse fill="none" stroke="#d89921" cx="691" cy="-454.494" rx="4" ry="4"/>
<polygon fill="#d89921" stroke="#d89921" points="691,-431.539 695.5,-421.539 691,-426.539 691,-421.539 691,-421.539 691,-421.539 691,-426.539 686.5,-421.539 691,-431.539 691,-431.539"/>
</g>
<!-- Sindicato -->
<g id="node12" class="node"><title>Sindicato</title>
<path fill="none" stroke="black" d="M897.5,-834C897.5,-834 1064.5,-834 1064.5,-834 1070.5,-834 1076.5,-840 1076.5,-846 1076.5,-846 1076.5,-928 1076.5,-928 1076.5,-934 1070.5,-940 1064.5,-940 1064.5,-940 897.5,-940 897.5,-940 891.5,-940 885.5,-934 885.5,-928 885.5,-928 885.5,-846 885.5,-846 885.5,-840 891.5,-834 897.5,-834"/>
<text text-anchor="middle" x="981" y="-924.8" font-family="Times,serif" font-size="14.00">Sindicato</text>
<polyline fill="none" stroke="black" points="885.5,-917 1076.5,-917 "/>
<text text-anchor="start" x="893.5" y="-901.8" font-family="Times,serif" font-size="14.00">id :int(11)</text>
<text text-anchor="start" x="893.5" y="-886.8" font-family="Times,serif" font-size="14.00">nombre_sindicato :varchar(255)</text>
<text text-anchor="start" x="893.5" y="-871.8" font-family="Times,serif" font-size="14.00">cuota_sindical :int(11)</text>
<text text-anchor="start" x="893.5" y="-856.8" font-family="Times,serif" font-size="14.00">created_at :datetime</text>
<text text-anchor="start" x="893.5" y="-841.8" font-family="Times,serif" font-size="14.00">updated_at :datetime</text>
</g>
<!-- Sindicato&#45;&gt;Personal -->
<g id="edge11" class="edge"><title>Sindicato&#45;&gt;Personal</title>
<path fill="none" stroke="#292aa9" d="M916.748,-828.173C882.348,-797.213 839.047,-758.242 799.591,-722.732"/>
<ellipse fill="none" stroke="#292aa9" cx="920.038" cy="-831.134" rx="4.00002" ry="4.00002"/>
<polygon fill="#292aa9" stroke="#292aa9" points="799.188,-722.37 794.766,-712.335 795.472,-719.025 791.755,-715.68 791.755,-715.68 791.755,-715.68 795.472,-719.025 788.745,-719.025 799.188,-722.37 799.188,-722.37"/>
</g>
<!-- Empresa -->
<g id="node13" class="node"><title>Empresa</title>
<path fill="none" stroke="black" d="M1576,-984.5C1576,-984.5 1756,-984.5 1756,-984.5 1762,-984.5 1768,-990.5 1768,-996.5 1768,-996.5 1768,-1213.5 1768,-1213.5 1768,-1219.5 1762,-1225.5 1756,-1225.5 1756,-1225.5 1576,-1225.5 1576,-1225.5 1570,-1225.5 1564,-1219.5 1564,-1213.5 1564,-1213.5 1564,-996.5 1564,-996.5 1564,-990.5 1570,-984.5 1576,-984.5"/>
<text text-anchor="middle" x="1666" y="-1210.3" font-family="Times,serif" font-size="14.00">Empresa</text>
<polyline fill="none" stroke="black" points="1564,-1202.5 1768,-1202.5 "/>
<text text-anchor="start" x="1572" y="-1187.3" font-family="Times,serif" font-size="14.00">id :int(11)</text>
<text text-anchor="start" x="1572" y="-1172.3" font-family="Times,serif" font-size="14.00">nombre_empresa :varchar(255)</text>
<text text-anchor="start" x="1572" y="-1157.3" font-family="Times,serif" font-size="14.00">rut_empresa :varchar(255)</text>
<text text-anchor="start" x="1572" y="-1142.3" font-family="Times,serif" font-size="14.00">giro :varchar(255)</text>
<text text-anchor="start" x="1572" y="-1127.3" font-family="Times,serif" font-size="14.00">domicilio :varchar(255)</text>
<text text-anchor="start" x="1572" y="-1112.3" font-family="Times,serif" font-size="14.00">email :varchar(255)</text>
<text text-anchor="start" x="1572" y="-1097.3" font-family="Times,serif" font-size="14.00">website :varchar(255)</text>
<text text-anchor="start" x="1572" y="-1082.3" font-family="Times,serif" font-size="14.00">telefono :varchar(255)</text>
<text text-anchor="start" x="1572" y="-1067.3" font-family="Times,serif" font-size="14.00">created_at :datetime</text>
<text text-anchor="start" x="1572" y="-1052.3" font-family="Times,serif" font-size="14.00">updated_at :datetime</text>
<text text-anchor="start" x="1572" y="-1037.3" font-family="Times,serif" font-size="14.00">image_file_name :varchar(255)</text>
<text text-anchor="start" x="1572" y="-1022.3" font-family="Times,serif" font-size="14.00">image_content_type :varchar(255)</text>
<text text-anchor="start" x="1572" y="-1007.3" font-family="Times,serif" font-size="14.00">image_file_size :int(11)</text>
<text text-anchor="start" x="1572" y="-992.3" font-family="Times,serif" font-size="14.00">image_updated_at :datetime</text>
</g>
<!-- ImpuestoUnico -->
<g id="node14" class="node"><title>ImpuestoUnico</title>
<path fill="none" stroke="black" d="M1798.5,-1029.5C1798.5,-1029.5 1989.5,-1029.5 1989.5,-1029.5 1995.5,-1029.5 2001.5,-1035.5 2001.5,-1041.5 2001.5,-1041.5 2001.5,-1168.5 2001.5,-1168.5 2001.5,-1174.5 1995.5,-1180.5 1989.5,-1180.5 1989.5,-1180.5 1798.5,-1180.5 1798.5,-1180.5 1792.5,-1180.5 1786.5,-1174.5 1786.5,-1168.5 1786.5,-1168.5 1786.5,-1041.5 1786.5,-1041.5 1786.5,-1035.5 1792.5,-1029.5 1798.5,-1029.5"/>
<text text-anchor="middle" x="1894" y="-1165.3" font-family="Times,serif" font-size="14.00">ImpuestoUnico</text>
<polyline fill="none" stroke="black" points="1786.5,-1157.5 2001.5,-1157.5 "/>
<text text-anchor="start" x="1794.5" y="-1142.3" font-family="Times,serif" font-size="14.00">id :int(11)</text>
<text text-anchor="start" x="1794.5" y="-1127.3" font-family="Times,serif" font-size="14.00">imponibleMinimo :decimal(9,2)</text>
<text text-anchor="start" x="1794.5" y="-1112.3" font-family="Times,serif" font-size="14.00">imponibleMaximo :decimal(11,2)</text>
<text text-anchor="start" x="1794.5" y="-1097.3" font-family="Times,serif" font-size="14.00">factor :decimal(4,3)</text>
<text text-anchor="start" x="1794.5" y="-1082.3" font-family="Times,serif" font-size="14.00">rebaja :decimal(9,2)</text>
<text text-anchor="start" x="1794.5" y="-1067.3" font-family="Times,serif" font-size="14.00">impuestoEfectivoMax :decimal(4,2)</text>
<text text-anchor="start" x="1794.5" y="-1052.3" font-family="Times,serif" font-size="14.00">created_at :datetime</text>
<text text-anchor="start" x="1794.5" y="-1037.3" font-family="Times,serif" font-size="14.00">updated_at :datetime</text>
</g>
<!-- Afp -->
<g id="node18" class="node"><title>Afp</title>
<path fill="none" stroke="black" d="M1106.5,-834C1106.5,-834 1213.5,-834 1213.5,-834 1219.5,-834 1225.5,-840 1225.5,-846 1225.5,-846 1225.5,-928 1225.5,-928 1225.5,-934 1219.5,-940 1213.5,-940 1213.5,-940 1106.5,-940 1106.5,-940 1100.5,-940 1094.5,-934 1094.5,-928 1094.5,-928 1094.5,-846 1094.5,-846 1094.5,-840 1100.5,-834 1106.5,-834"/>
<text text-anchor="middle" x="1160" y="-924.8" font-family="Times,serif" font-size="14.00">Afp</text>
<polyline fill="none" stroke="black" points="1094.5,-917 1225.5,-917 "/>
<text text-anchor="start" x="1102.5" y="-901.8" font-family="Times,serif" font-size="14.00">id :int(11)</text>
<text text-anchor="start" x="1102.5" y="-886.8" font-family="Times,serif" font-size="14.00">afp :varchar(255)</text>
<text text-anchor="start" x="1102.5" y="-871.8" font-family="Times,serif" font-size="14.00">descuento_afp :float</text>
<text text-anchor="start" x="1102.5" y="-856.8" font-family="Times,serif" font-size="14.00">created_at :datetime</text>
<text text-anchor="start" x="1102.5" y="-841.8" font-family="Times,serif" font-size="14.00">updated_at :datetime</text>
</g>
<!-- Afp&#45;&gt;Personal -->
<g id="edge12" class="edge"><title>Afp&#45;&gt;Personal</title>
<path fill="none" stroke="#7c60cc" d="M1089.62,-829.047C1088.08,-828.009 1086.54,-826.992 1085,-826 993.217,-766.75 881.765,-711.277 800.852,-673.683"/>
<ellipse fill="none" stroke="#7c60cc" cx="1093.11" cy="-831.453" rx="4.00002" ry="4.00002"/>
<polygon fill="#7c60cc" stroke="#7c60cc" points="800.711,-673.618 793.527,-665.333 796.174,-671.517 791.636,-669.417 791.636,-669.417 791.636,-669.417 796.174,-671.517 789.746,-673.501 800.711,-673.618 800.711,-673.618"/>
</g>
<!-- Categorium -->
<g id="node19" class="node"><title>Categorium</title>
<path fill="none" stroke="black" d="M1265.5,-1059.5C1265.5,-1059.5 1384.5,-1059.5 1384.5,-1059.5 1390.5,-1059.5 1396.5,-1065.5 1396.5,-1071.5 1396.5,-1071.5 1396.5,-1138.5 1396.5,-1138.5 1396.5,-1144.5 1390.5,-1150.5 1384.5,-1150.5 1384.5,-1150.5 1265.5,-1150.5 1265.5,-1150.5 1259.5,-1150.5 1253.5,-1144.5 1253.5,-1138.5 1253.5,-1138.5 1253.5,-1071.5 1253.5,-1071.5 1253.5,-1065.5 1259.5,-1059.5 1265.5,-1059.5"/>
<text text-anchor="middle" x="1325" y="-1135.3" font-family="Times,serif" font-size="14.00">Categorium</text>
<polyline fill="none" stroke="black" points="1253.5,-1127.5 1396.5,-1127.5 "/>
<text text-anchor="start" x="1261.5" y="-1112.3" font-family="Times,serif" font-size="14.00">id :int(11)</text>
<text text-anchor="start" x="1261.5" y="-1097.3" font-family="Times,serif" font-size="14.00">categoria :varchar(255)</text>
<text text-anchor="start" x="1261.5" y="-1082.3" font-family="Times,serif" font-size="14.00">created_at :datetime</text>
<text text-anchor="start" x="1261.5" y="-1067.3" font-family="Times,serif" font-size="14.00">updated_at :datetime</text>
</g>
<!-- Categorium&#45;&gt;Subcategorium -->
<g id="edge13" class="edge"><title>Categorium&#45;&gt;Subcategorium</title>
<path fill="none" stroke="#88092d" d="M1325,-1050.9C1325,-1020.51 1325,-982.215 1325,-950.391"/>
<ellipse fill="none" stroke="#88092d" cx="1325" cy="-1055.24" rx="4" ry="4"/>
<polygon fill="#88092d" stroke="#88092d" points="1325,-950.305 1329.5,-940.305 1325,-945.305 1325,-940.305 1325,-940.305 1325,-940.305 1325,-945.305 1320.5,-940.305 1325,-950.305 1325,-950.305"/>
</g>
<!-- Certificate -->
<g id="node20" class="node"><title>Certificate</title>
<path fill="none" stroke="black" d="M2031.5,-1044.5C2031.5,-1044.5 2168.5,-1044.5 2168.5,-1044.5 2174.5,-1044.5 2180.5,-1050.5 2180.5,-1056.5 2180.5,-1056.5 2180.5,-1153.5 2180.5,-1153.5 2180.5,-1159.5 2174.5,-1165.5 2168.5,-1165.5 2168.5,-1165.5 2031.5,-1165.5 2031.5,-1165.5 2025.5,-1165.5 2019.5,-1159.5 2019.5,-1153.5 2019.5,-1153.5 2019.5,-1056.5 2019.5,-1056.5 2019.5,-1050.5 2025.5,-1044.5 2031.5,-1044.5"/>
<text text-anchor="middle" x="2100" y="-1150.3" font-family="Times,serif" font-size="14.00">Certificate</text>
<polyline fill="none" stroke="black" points="2019.5,-1142.5 2180.5,-1142.5 "/>
<text text-anchor="start" x="2027.5" y="-1127.3" font-family="Times,serif" font-size="14.00">id :int(11)</text>
<text text-anchor="start" x="2027.5" y="-1112.3" font-family="Times,serif" font-size="14.00">personal_id :int(11)</text>
<text text-anchor="start" x="2027.5" y="-1097.3" font-family="Times,serif" font-size="14.00">rut_personal :varchar(255)</text>
<text text-anchor="start" x="2027.5" y="-1082.3" font-family="Times,serif" font-size="14.00">motivo :varchar(255)</text>
<text text-anchor="start" x="2027.5" y="-1067.3" font-family="Times,serif" font-size="14.00">created_at :datetime</text>
<text text-anchor="start" x="2027.5" y="-1052.3" font-family="Times,serif" font-size="14.00">updated_at :datetime</text>
</g>
<!-- User -->
<g id="node21" class="node"><title>User</title>
<path fill="none" stroke="black" d="M2210.5,-1014.5C2210.5,-1014.5 2375.5,-1014.5 2375.5,-1014.5 2381.5,-1014.5 2387.5,-1020.5 2387.5,-1026.5 2387.5,-1026.5 2387.5,-1183.5 2387.5,-1183.5 2387.5,-1189.5 2381.5,-1195.5 2375.5,-1195.5 2375.5,-1195.5 2210.5,-1195.5 2210.5,-1195.5 2204.5,-1195.5 2198.5,-1189.5 2198.5,-1183.5 2198.5,-1183.5 2198.5,-1026.5 2198.5,-1026.5 2198.5,-1020.5 2204.5,-1014.5 2210.5,-1014.5"/>
<text text-anchor="middle" x="2293" y="-1180.3" font-family="Times,serif" font-size="14.00">User</text>
<polyline fill="none" stroke="black" points="2198.5,-1172.5 2387.5,-1172.5 "/>
<text text-anchor="start" x="2206.5" y="-1157.3" font-family="Times,serif" font-size="14.00">id :int(11)</text>
<text text-anchor="start" x="2206.5" y="-1142.3" font-family="Times,serif" font-size="14.00">nombre :varchar(255)</text>
<text text-anchor="start" x="2206.5" y="-1127.3" font-family="Times,serif" font-size="14.00">apellido_paterno :varchar(255)</text>
<text text-anchor="start" x="2206.5" y="-1112.3" font-family="Times,serif" font-size="14.00">apellido_materno :varchar(255)</text>
<text text-anchor="start" x="2206.5" y="-1097.3" font-family="Times,serif" font-size="14.00">email :varchar(255)</text>
<text text-anchor="start" x="2206.5" y="-1082.3" font-family="Times,serif" font-size="14.00">rut_usuario :varchar(255)</text>
<text text-anchor="start" x="2206.5" y="-1067.3" font-family="Times,serif" font-size="14.00">tipo_usuario :varchar(255)</text>
<text text-anchor="start" x="2206.5" y="-1052.3" font-family="Times,serif" font-size="14.00">password_digest :varchar(255)</text>
<text text-anchor="start" x="2206.5" y="-1037.3" font-family="Times,serif" font-size="14.00">created_at :datetime</text>
<text text-anchor="start" x="2206.5" y="-1022.3" font-family="Times,serif" font-size="14.00">updated_at :datetime</text>
</g>
<!-- IndicadorEconomico -->
<g id="node22" class="node"><title>IndicadorEconomico</title>
<path fill="none" stroke="black" d="M2417.5,-1052C2417.5,-1052 2538.5,-1052 2538.5,-1052 2544.5,-1052 2550.5,-1058 2550.5,-1064 2550.5,-1064 2550.5,-1146 2550.5,-1146 2550.5,-1152 2544.5,-1158 2538.5,-1158 2538.5,-1158 2417.5,-1158 2417.5,-1158 2411.5,-1158 2405.5,-1152 2405.5,-1146 2405.5,-1146 2405.5,-1064 2405.5,-1064 2405.5,-1058 2411.5,-1052 2417.5,-1052"/>
<text text-anchor="middle" x="2478" y="-1142.8" font-family="Times,serif" font-size="14.00">IndicadorEconomico</text>
<polyline fill="none" stroke="black" points="2405.5,-1135 2550.5,-1135 "/>
<text text-anchor="start" x="2413.5" y="-1119.8" font-family="Times,serif" font-size="14.00">id :int(11)</text>
<text text-anchor="start" x="2413.5" y="-1104.8" font-family="Times,serif" font-size="14.00">indicador :varchar(255)</text>
<text text-anchor="start" x="2413.5" y="-1089.8" font-family="Times,serif" font-size="14.00">valor :decimal(7,2)</text>
<text text-anchor="start" x="2413.5" y="-1074.8" font-family="Times,serif" font-size="14.00">created_at :datetime</text>
<text text-anchor="start" x="2413.5" y="-1059.8" font-family="Times,serif" font-size="14.00">updated_at :datetime</text>
</g>
</g>
</svg>
